<svg width="98" height="38" viewBox="0 0 98 38" fill="none" xmlns="http://www.w3.org/2000/svg">
<path d="M29.7861 27.7559H24.5371V37.0088H16.3584V27.7559H0.196289V23.2637L17.7256 1.07129H24.5371V22.6045H29.7861V27.7559ZM16.3584 22.6045V6.90625L3.93164 22.6045H16.3584ZM97.3154 27.7559H92.0664V37.0088H83.8877V27.7559H67.7256V23.2637L85.2549 1.07129H92.0664V22.6045H97.3154V27.7559ZM83.8877 22.6045V6.90625L71.4609 22.6045H83.8877Z" fill="#004835"/>
<path d="M60.377 5.24609C61.6139 6.54818 62.5254 8.03743 63.1113 9.71387C63.7135 11.374 64.0146 13.0993 64.0146 14.8896C64.0146 17.0218 63.6403 18.9505 62.8916 20.6758C62.1592 22.3848 61.1501 23.8333 59.8643 25.0215C58.5133 26.2585 56.9427 27.2025 55.1523 27.8535C53.362 28.5046 51.3031 28.8301 48.9756 28.8301C46.5179 28.8301 44.3451 28.4476 42.457 27.6826C40.5853 26.9176 39.0228 25.9085 37.7695 24.6553C36.5326 23.4183 35.5885 21.9616 34.9375 20.2852C34.3027 18.6087 33.9854 16.8102 33.9854 14.8896C33.9854 12.9854 34.2865 11.2194 34.8887 9.5918C35.5072 7.96419 36.4512 6.49121 37.7207 5.17285C38.9577 3.88704 40.5283 2.86165 42.4326 2.09668C44.3369 1.31543 46.526 0.924805 49 0.924805C51.5553 0.924805 53.7852 1.32357 55.6895 2.12109C57.5938 2.91862 59.1562 3.96029 60.377 5.24609ZM53.4922 23.4346C53.9642 22.3441 54.2979 21.1315 54.4932 19.7969C54.7048 18.446 54.8105 16.8102 54.8105 14.8896C54.8105 13.1644 54.7129 11.61 54.5176 10.2266C54.3385 8.8431 54.0293 7.61426 53.5898 6.54004C53.1341 5.43327 52.5319 4.57878 51.7832 3.97656C51.0345 3.37435 50.1149 3.07324 49.0244 3.07324C47.9176 3.07324 46.9899 3.37435 46.2412 3.97656C45.4925 4.5625 44.8822 5.40072 44.4102 6.49121C43.987 7.48405 43.6777 8.70475 43.4824 10.1533C43.2871 11.5856 43.1895 13.1644 43.1895 14.8896C43.1895 16.6963 43.2708 18.2344 43.4336 19.5039C43.6126 20.7734 43.93 21.9941 44.3857 23.166C44.7926 24.224 45.3786 25.0785 46.1436 25.7295C46.9085 26.3805 47.8525 26.7061 48.9756 26.7061C50.0173 26.7061 50.9206 26.4131 51.6855 25.8271C52.4505 25.2412 53.0527 24.4437 53.4922 23.4346Z" fill="#F5C92A"/>
</svg>
