<svg xmlns="http://www.w3.org/2000/svg" aria-hidden="true" style="position:absolute;width:0;height:0;overflow:hidden">
  <defs>
    <symbol id="icon-About-Us" viewBox="0 0 32 32">
      <path fill="none" stroke="#004835" stroke-linecap="round" stroke-linejoin="round" stroke-width="2"
        d="M21.65 6.424c2.434 0 4.392 1.902 4.392 4.24 0 2.29-1.882 4.155-4.229 4.24a1.48 1.48 0 0 0-.326 0m2.585 10.903c.904-.182 1.757-.533 2.46-1.054 1.958-1.417 1.958-3.756 0-5.173-.69-.509-1.531-.848-2.422-1.042m-11.558-3.791a2.384 2.384 0 0 0-.414 0c-1.44-.047-2.805-.634-3.805-1.636S6.776 10.771 6.78 9.38c0-2.968 2.485-5.379 5.572-5.379 1.476-.026 2.902.516 3.965 1.505s1.674 2.346 1.701 3.771c.027 1.425-.534 2.802-1.559 3.828s-2.43 1.617-3.906 1.642zm-6.274 4.47c-3.037 1.963-3.037 5.161 0 7.111 3.451 2.229 9.111 2.229 12.562 0 3.037-1.963 3.037-5.161 0-7.111C15.402 17 9.742 17 6.278 19.217v0z"
        style="stroke:var(--color1, #004835)" />
    </symbol>
    <symbol id="icon-Gid" viewBox="0 0 32 32">
      <path fill="none" stroke="#004835" stroke-linecap="round" stroke-linejoin="round" stroke-miterlimit="10"
        stroke-width="1.5"
        d="M29.334 8v3.227c0 2.107-1.333 3.44-3.44 3.44h-4.56v-9.32c0-1.48 1.213-2.68 2.693-2.68a5.36 5.36 0 0 1 3.747 1.56A5.367 5.367 0 0 1 29.334 8z"
        style="stroke:var(--color1, #004835)" />
      <path fill="none" stroke="#004835" stroke-linecap="round" stroke-linejoin="round" stroke-miterlimit="10"
        stroke-width="1.5"
        d="M2.666 9.333V28c0 1.107 1.253 1.733 2.133 1.067l2.28-1.707c.533-.4 1.28-.347 1.76.133l2.213 2.227c.52.52 1.373.52 1.893 0l2.24-2.24a1.32 1.32 0 0 1 1.733-.12l2.28 1.707c.88.653 2.133.027 2.133-1.067V5.333c0-1.467 1.2-2.667 2.667-2.667h-16c-4 0-5.333 2.387-5.333 5.333v1.333z"
        style="stroke:var(--color1, #004835)" />
      <path fill="none" stroke="#004835" stroke-linecap="round" stroke-linejoin="round" stroke-width="1.5"
        d="M12 17.347h4m-4-5.334h4" style="stroke:var(--color1, #004835)" />
      <path fill="none" stroke="#004835" stroke-linecap="round" stroke-linejoin="round" stroke-width="2"
        d="M7.994 17.333h.012M7.994 12h.012" style="stroke:var(--color1, #004835)" />
    </symbol>
    <symbol id="icon-Game" viewBox="0 0 32 32">
      <path fill="none" stroke="#004835" stroke-linecap="round" stroke-linejoin="round" stroke-width="1.5"
        d="m8.934 12.347 7.067 4.093 7.013-4.067M16 23.693v-7.267" style="stroke:var(--color1, #004835)" />
      <path fill="none" stroke="#004835" stroke-linecap="round" stroke-linejoin="round" stroke-width="1.5"
        d="M29.667 20.333a9.326 9.326 0 0 1-9.333 9.333l1.4-2.333M3 12.333A9.326 9.326 0 0 1 12.333 3l-1.4 2.333M14.68 8.72l-4.267 2.373c-.96.533-1.76 1.88-1.76 2.987v4.52c0 1.107.787 2.453 1.76 2.987l4.267 2.373c.907.507 2.4.507 3.32 0l4.267-2.373c.96-.533 1.76-1.88 1.76-2.987v-4.533c0-1.107-.787-2.453-1.76-2.987L18 8.707c-.92-.507-2.413-.507-3.32.013z"
        style="stroke:var(--color1, #004835)" />
    </symbol>
    <symbol id="icon-United-States-of-America-US" viewBox="0 0 40 32">
      <path fill="#bd3d44"
        d="M0 0h57v2.463H0V0zm0 4.925h57v2.463H0V4.925zm0 4.919h57v2.469H0V9.844zm0 4.925h57v2.463H0v-2.463zm0 4.925h57v2.462H0v-2.462zm0 4.918h57v2.463H0v-2.463zm0 4.925h57V32H0v-2.463z"
        style="fill:var(--color2, #bd3d44)" />
      <path fill="#fff"
        d="M0 2.462h57v2.462H0V2.462zm0 4.925h57v2.456H0V7.387zm0 4.919h57v2.462H0v-2.462zm0 4.925h57v2.462H0v-2.462zm0 4.925h57v2.462H0v-2.462zm0 4.919h57v2.463H0v-2.463z"
        style="fill:var(--color3, #fff)" />
      <path fill="#192f5d" d="M0 0h22.799v17.231H0V0z" style="fill:var(--color4, #192f5d)" />
      <path fill="#fff"
        d="m1.898.737.211.681h.668l-.539.419.205.687-.545-.425-.539.419.205-.681-.545-.419h.68l.199-.681zm3.803 0 .205.681h.674l-.545.419.205.687-.539-.425-.545.419.205-.681-.539-.419h.668l.211-.681zm3.797 0 .211.681h.662l-.539.419.205.687-.545-.425-.539.419.205-.681-.545-.419h.674l.211-.681zm3.803 0 .205.681h.674l-.545.419.211.687-.545-.425-.545.419.211-.681-.545-.419h.668l.211-.681zm3.797 0 .211.681h.668l-.539.419.205.687-.545-.425-.539.419.205-.681-.539-.419h.668l.205-.681zm3.802 0 .205.681h.674l-.545.419.211.687-.545-.425-.545.419.211-.681-.545-.419h.674L20.9.737zM3.803 2.462l.205.681h.674l-.545.419.199.681-.527-.419-.545.419.193-.681-.527-.419h.668l.205-.681zm3.797 0 .211.681h.668l-.545.419.211.681-.545-.419-.545.419.211-.681-.545-.419h.674l.205-.681zm3.802 0 .205.681h.674l-.545.419.205.681-.539-.419-.545.419.205-.681-.539-.419h.668l.211-.681zm3.797 0 .211.681h.668l-.545.419.211.681-.545-.419-.539.419.205-.681-.545-.419H15l.199-.681zm3.803 0 .205.681h.674l-.545.419.205.681-.539-.419-.545.419.205-.681-.539-.419h.668l.211-.681zM1.898 4.181l.211.694h.668l-.539.419.205.681-.545-.425-.539.425.205-.688-.545-.419h.68l.199-.688zm3.803 0 .205.687h.674l-.545.419.205.681-.539-.425-.545.425.205-.687-.539-.419h.668l.211-.681zm3.797 0 .211.687h.662l-.539.419.205.681-.545-.425-.539.425.205-.687-.545-.419h.674l.211-.681zm3.803 0 .205.687h.674l-.545.419.211.681-.545-.425-.545.425.211-.687-.545-.419h.668l.211-.681zm3.797 0 .211.687h.668l-.539.419.205.681-.545-.425-.539.425.205-.687-.539-.419h.668l.205-.681zm3.802 0 .205.687h.674l-.545.419.211.681-.545-.425-.545.425.211-.687-.545-.419h.674l.205-.681zM3.803 5.906l.205.681h.674l-.545.419.205.688-.539-.425-.545.419.205-.681-.539-.419h.668l.211-.681zm3.797 0 .211.681h.668l-.545.419.211.688-.545-.425-.545.419.211-.681-.545-.419h.674l.205-.681zm3.802 0 .205.681h.674l-.545.419.205.688-.539-.425-.545.419.205-.681-.539-.419h.668l.211-.681zm3.797 0 .211.681h.668l-.539.419.205.688-.545-.425-.539.419.205-.681-.545-.419H15l.199-.681zm3.803 0 .205.681h.674l-.545.419.205.688-.539-.425-.545.419.205-.681-.539-.419h.668l.211-.681zM1.898 7.631l.211.681h.668l-.539.419.205.688-.545-.425-.539.419.205-.681-.545-.419h.68l.199-.681zm3.803 0 .205.681h.674l-.545.419.205.681-.539-.419-.545.419.205-.681-.539-.419h.668l.211-.681zm3.797 0 .211.681h.662l-.539.419.205.688-.545-.425-.539.419.205-.681-.545-.419h.674l.211-.681zm3.803 0 .205.681h.674l-.545.419.211.688-.545-.425-.545.419.211-.681-.545-.419h.668l.211-.681zm3.797 0 .211.681h.668l-.539.419.205.688-.545-.425-.539.419.205-.681-.539-.419h.668l.205-.681zm3.802 0 .205.681h.674l-.545.419.211.688-.545-.425-.545.419.211-.681-.545-.419h.674l.205-.681zM3.803 9.356l.205.681h.674l-.545.419.205.681-.539-.425-.545.425.205-.688-.539-.419h.668l.211-.675zm3.797 0 .211.681h.668l-.545.419.211.681-.545-.425-.545.425.211-.688-.545-.419h.674l.205-.675zm3.802 0 .205.681h.674l-.545.419.205.681-.539-.425-.545.425.205-.688-.539-.419h.668l.211-.675zm3.797 0 .211.681h.668l-.539.419.205.681-.545-.425-.539.425.205-.688-.545-.419H15l.199-.675zm3.803 0 .205.681h.674l-.545.419.205.681-.539-.425-.545.425.205-.688-.539-.419h.668l.211-.675zM1.898 11.075l.211.688h.668l-.539.419.205.675-.545-.419-.539.419.205-.681-.545-.419h.68l.199-.681zm3.803 0 .205.688h.674l-.545.419.211.675-.545-.419-.545.419.211-.681-.545-.419h.668l.211-.681zm3.797 0 .211.688h.662l-.539.419.205.675-.545-.419-.539.419.205-.681-.545-.419h.674l.211-.681zm3.803 0 .205.688h.674l-.545.419.211.675-.545-.419-.545.419.211-.681-.545-.419h.668l.211-.681zm3.797 0 .211.688h.668l-.539.419.205.675-.545-.419-.539.419.205-.681-.539-.419h.668l.205-.681zm3.802 0 .205.688h.674l-.545.419.211.675-.545-.419-.545.419.211-.681-.545-.419h.674l.205-.681zM3.803 12.8l.205.681h.674l-.545.419.205.688-.539-.425-.545.419.205-.681-.539-.419h.668l.211-.681zm3.797 0 .211.681h.668l-.545.419.211.688-.545-.425-.545.419.211-.681-.545-.419h.674l.205-.681zm3.802 0 .205.681h.674l-.545.419.205.688-.539-.425-.545.419.205-.681-.539-.419h.668l.211-.681zm3.797 0 .211.681h.668l-.539.419.205.688-.545-.425-.539.419.205-.681-.545-.419H15l.199-.681zm3.803 0 .205.681h.674l-.545.419.205.688-.539-.425-.545.419.205-.681-.539-.419h.668l.211-.681zM1.898 14.525l.211.681h.668l-.539.419.205.681-.545-.419-.539.419.205-.687-.545-.419h.68l.199-.675zm3.803 0 .205.681h.674l-.545.419.211.681-.545-.419-.545.419.211-.687-.545-.419h.668l.211-.675zm3.797 0 .211.681h.662l-.527.419.205.681-.545-.419-.539.419.205-.687-.545-.419h.674l.199-.675zm3.803 0 .205.681h.674l-.545.419.211.681-.545-.419-.545.419.211-.687-.545-.419h.668l.211-.675zm3.797 0 .211.681h.668l-.539.419.205.681-.545-.419-.539.419.205-.687-.539-.419h.668l.205-.675zm3.802 0 .205.681h.674l-.545.419.211.681-.545-.419-.545.419.211-.687-.545-.419h.674l.205-.675z"
        style="fill:var(--color3, #fff)" />
    </symbol>
    <symbol id="icon-Ukr-flag" viewBox="0 0 40 32">
      <path fill="gold" d="M0 0h40v32.5H0V0z" style="fill:var(--color5, #ffd700)" />
      <path fill="#0057b8" d="M0 0h40v16.25H0V0z" style="fill:var(--color6, #0057b8)" />
    </symbol>
    <symbol id="icon-menu" viewBox="0 0 32 32">
      <path stroke-linecap="round" stroke="#1B1D1C" stroke-width="3" d="M2.4 9.6h27.2M2.4 16h27.2M2.4 22.4h27.2" />
    </symbol>
    <symbol id="icon-PFU" viewBox="0 0 32 32">
      <path fill="none" stroke="#004835" stroke-linecap="round" stroke-linejoin="round" stroke-miterlimit="10"
        stroke-width="2"
        d="M29.919 26.831c.826 1.34 1.08 2.496.62 3.294-1.277 2.204-7.509 1.036-14.541-2.537.85-.428 1.713-.892 2.58-1.394 2.473-1.431 4.691-2.965 6.539-4.478l.058.07c1.557 1.283 2.851 2.549 3.796 3.717a.817.817 0 0 0 .949 1.328z"
        style="stroke:var(--color1, #004835)" />
      <path fill="none" stroke="#004835" stroke-linecap="round" stroke-linejoin="round" stroke-miterlimit="10"
        stroke-width="2"
        d="M29.468 25.339c.448 0 .817.366.817.814a.819.819 0 1 1-1.635.001c0-.263.123-.497.32-.646a.798.798 0 0 1 .497-.169zM28.93 12.221a.811.811 0 0 1-.813.81.816.816 0 0 1-.817-.814v-.008a.815.815 0 0 1 1.63.012zM22.206 8.923a5.942 5.942 0 0 1-2.567 4.889v1.069h-6.753v-1.069a5.948 5.948 0 0 1-2.563-4.889 5.946 5.946 0 0 1 5.94-5.946 5.939 5.939 0 0 1 5.944 5.946zm-5.48-.3.604-.078a1.02 1.02 0 0 0-.288-.567 1.03 1.03 0 0 0-.604-.255v-.234h-.345v.234c-.267.029-.485.127-.645.304a.923.923 0 0 0-.242.654c0 .251.07.469.214.654.144.181.374.313.674.399v.991a.639.639 0 0 1-.226-.197.777.777 0 0 1-.144-.329l-.616.078c.049.308.16.543.329.711.172.168.386.271.661.304v.432h.345v-.44c.312-.049.555-.169.723-.366.177-.193.267-.432.267-.72a.979.979 0 0 0-.209-.629c-.14-.16-.394-.292-.78-.395v-.925c.152.058.247.185.283.374zM19.638 17.258v1.094h-6.753v-1.094h6.753zM19.638 16.119h-6.753v1.139h6.753v-1.139z"
        style="stroke:var(--color1, #004835)" />
      <path fill="none" stroke="#004835" stroke-linecap="round" stroke-linejoin="round" stroke-miterlimit="10"
        stroke-width="2"
        d="M19.638 14.882h-6.753v1.238h6.753v-1.238zM18.468 18.352v1.994h-4.403v-1.994h4.403zM16.972 20.347h-1.417v1.735h1.417v-1.735zM16.752 10.009c.062.074.09.165.09.267a.494.494 0 0 1-.111.313.551.551 0 0 1-.292.169v-.929c.144.045.247.099.313.181zM16.095 8.233v.822a.551.551 0 0 1-.226-.177c-.049-.07-.07-.148-.07-.234s.025-.177.082-.251a.405.405 0 0 1 .214-.16zM12.885 14.882v2.714h-.041c-2.235 1.332-4.247 2.739-5.944 4.128l-.004.004c-4.157-3.405-6.42-6.694-5.434-8.405.608-1.061 2.37-1.341 4.818-.946a.817.817 0 0 0 1.602.329c1.483.366 3.138.921 4.896 1.657h.107v.518z"
        style="stroke:var(--color1, #004835)" />
      <path fill="none" stroke="#004835" stroke-linecap="round" stroke-linejoin="round" stroke-miterlimit="10"
        stroke-width="2"
        d="M6.28 12.377a.82.82 0 0 1 .805-.67.822.822 0 0 1 .796.999.817.817 0 0 1-1.602-.329zM4.215 31.178c0 .021 0 .041-.004.062a.81.81 0 0 1-.809.757.813.813 0 0 1-.792-1.003.813.813 0 0 1 1.606.185zM14.064 18.352h-1.175v-4.54a5.948 5.948 0 0 1-2.563-4.889 5.946 5.946 0 0 1 5.94-5.946 5.944 5.944 0 0 1 3.373 10.835v4.54h-1.175"
        style="stroke:var(--color1, #004835)" />
      <path fill="none" stroke="#004835" stroke-linecap="round" stroke-linejoin="round" stroke-miterlimit="2.613"
        stroke-width="2"
        d="M2.603 30.997c-.526-.185-.916-.473-1.142-.872-.99-1.707 1.282-4.992 5.434-8.401l.004-.004c1.696-1.39 3.709-2.796 5.944-4.128M28.925 12.324c.764.16 1.319.489 1.614.999.986 1.707-1.277 4.992-5.426 8.393-1.844 1.513-4.063 3.051-6.539 4.478-.867.502-1.729.966-2.58 1.394-4.699 2.389-9.041 3.701-11.785 3.651M19.703 14.162c2.97-1.197 5.628-1.879 7.599-1.953M28.971 25.503c-.945-1.172-2.239-2.439-3.796-3.717"
        style="stroke:var(--color1, #004835)" />
      <path fill="none" stroke="#004835" stroke-linecap="round" stroke-linejoin="round" stroke-miterlimit="2.613"
        stroke-width="2"
        d="M6.279 12.377c-2.448-.395-4.206-.115-4.818.946-.99 1.711 1.277 5 5.434 8.405 1.84 1.509 4.058 3.043 6.523 4.47.867.502 1.729.966 2.58 1.394 7.028 3.573 13.264 4.741 14.541 2.537.46-.798.205-1.953-.62-3.294M12.779 14.363c-1.758-.736-3.414-1.295-4.896-1.657M15.898 0v2.011M18.828.296l-.514 1.949M21.584 1.349l-1.002 1.748M10.309 1.682l1.002 1.744M12.996.473l.518 1.945M13.605 11.333l-1.216.477-.333-.58 1.019-.814a3.441 3.441 0 0 1-.189-.703l-1.294-.193v-.674l1.294-.197c.037-.243.099-.477.189-.703l-1.019-.814.333-.584 1.216.477c.152-.189.325-.362.513-.51l-.476-1.217.579-.337.813 1.016c.226-.082.46-.144.707-.189l.193-1.291h.674l.193 1.291c.242.041.481.103.702.189l.813-1.016.579.337-.477 1.217c.189.148.361.321.509.51l1.216-.477.337.584-1.023.814c.09.226.148.461.185.703l1.298.197v.67l-1.298.197a3.238 3.238 0 0 1-.185.703l1.023.814-.337.58-1.216-.477M12.018 14.882h8.495M12.018 16.119h8.495M12.018 17.258h8.495"
        style="stroke:var(--color1, #004835)" />
      <path fill="none" stroke="#004835" stroke-linecap="round" stroke-linejoin="round" stroke-miterlimit="2.613"
        stroke-width="2" d="M15.554 20.346h-1.491v-1.994h4.403v1.994h-1.495M16.972 20.346h-1.417v1.735h1.417v-1.735z"
        style="stroke:var(--color1, #004835)" />
      <path fill="none" stroke="#004835" stroke-linecap="round" stroke-linejoin="round" stroke-miterlimit="10"
        stroke-width="2"
        d="M6.28 12.377a.82.82 0 0 1 .805-.67.822.822 0 0 1 .796.999.817.817 0 0 1-1.602-.329zM28.969 25.503a.819.819 0 0 1 1.314.645.819.819 0 1 1-1.635.001c0-.263.123-.498.32-.646zM2.606 30.997a.813.813 0 0 1 1.606.185c0 .021 0 .041-.004.062a.81.81 0 0 1-.809.757.813.813 0 0 1-.792-1.003zM27.303 12.213a.815.815 0 1 1 1.622.111.811.811 0 0 1-.805.707.816.816 0 0 1-.817-.814v-.004z"
        style="stroke:var(--color1, #004835)" />
    </symbol>
    <symbol id="icon-STS-Ukr" viewBox="0 0 32 32">
      <path fill="#004835"
        d="M16.309 16.77c-2.848 0-5.075-2.353-6.267-4.651-.878-.357-1.684-1.305-2.043-2.11-.62-1.395-.239-2.858.867-3.341C9.269 2.888 12.443 0 16.308 0s7.039 2.89 7.442 6.668c1.103.483 1.487 1.946.867 3.341-.358.808-1.162 1.752-2.043 2.11-1.192 2.298-3.418 4.651-6.267 4.651zm0-15.405a6.083 6.083 0 0 0-6.092 5.871l-.022.617-.628.038a.423.423 0 0 0-.131.022c-.336.145-.478.838-.161 1.55s1.006 1.343 1.415 1.433l.331.071.145.3c.973 2.001 2.835 4.138 5.147 4.138s4.174-2.137 5.147-4.138l.145-.3.331-.071c.406-.09 1.098-.72 1.415-1.433s.175-1.406-.161-1.55a.384.384 0 0 0-.131-.022l-.634-.038-.022-.617a6.082 6.082 0 0 0-6.092-5.871zM21.794 17.103l-2.796 10.216h-5.38l-2.796-10.216c-3.729.925-6.514 4.258-6.514 8.199V32h24v-6.698c0-3.939-2.782-7.271-6.514-8.199z"
        style="fill:var(--color1, #004835)" />
      <path fill="#004835"
        d="M16.308 18.363c.484 0 .887.366.925.841l.864 11.046c-.203.153-.411.237-.625.237h-2.323c-.214 0-.425-.085-.625-.237l.864-11.046a.914.914 0 0 1 .92-.841zM22.566 4.831a6.79 6.79 0 0 0-12.512 0h12.511z"
        style="fill:var(--color1, #004835)" />
      <path fill="#004835"
        d="M22.98 5.104H9.641l.158-.377C10.908 2.104 13.465.409 16.31.409s5.402 1.695 6.511 4.318l.158.377zm-12.494-.546h11.647C21.035 2.355 18.793.955 16.308.955s-4.722 1.4-5.822 3.603z"
        style="fill:var(--color1, #004835)" />
    </symbol>
    <symbol id="icon-Help" viewBox="0 0 32 32">
      <path fill="#004835"
        d="M23.309 5.768H8.621a.497.497 0 0 1 0-.994h14.688c.271 0 .492.224.492.497s-.219.497-.492.497zM23.309 8.125H8.621a.497.497 0 0 1 0-.994h14.688c.271 0 .492.224.492.497s-.219.497-.492.497zM23.309 10.485H8.621c-.271 0-.492-.223-.492-.497s.222-.497.492-.497h14.688c.271 0 .492.224.492.497a.493.493 0 0 1-.492.497zM23.309 12.845H8.621a.497.497 0 0 1 0-.994h14.688c.271 0 .492.223.492.497s-.219.497-.492.497z"
        style="fill:var(--color1, #004835)" />
      <path fill="#004835"
        d="M26.048 13.563a.619.619 0 0 1-.616-.621v-8.56c0-.375-.3-.678-.672-.678H7.174a.674.674 0 0 0-.672.678v8.56c0 .343-.276.621-.616.621s-.616-.278-.616-.621v-8.56c0-1.058.854-1.92 1.903-1.92h17.586c1.049 0 1.903.862 1.903 1.92v8.56a.619.619 0 0 1-.616.621zM.285 8.977 3.981 6.17a.267.267 0 0 1 .428.216v5.569a.267.267 0 0 1-.426.216L.287 9.409a.27.27 0 0 1-.002-.432zM28.009 6.389l3.686 2.591a.27.27 0 0 1 .007.437l-3.686 2.755a.267.267 0 0 1-.426-.216V6.61a.266.266 0 0 1 .419-.221zM0 11.216v17.652c0 .243.293.363.46.186l9.837-10.404a.271.271 0 0 0-.034-.402L.426 10.999a.267.267 0 0 0-.426.216zM31.999 11.216v17.652a.266.266 0 0 1-.46.186L21.702 18.65a.27.27 0 0 1 .037-.402l9.837-7.249a.265.265 0 0 1 .424.216zM15.685 14.572 1.911 29.084a.27.27 0 0 0 .192.455h27.548a.269.269 0 0 0 .192-.455L16.069 14.572a.266.266 0 0 0-.384 0z"
        style="fill:var(--color1, #004835)" />
    </symbol>
    <symbol id="icon-Tax" viewBox="0 0 32 32">
      <path fill="#004835"
        d="M30.671 4.504H1.329a1.329 1.329 0 1 1 0-2.658h29.342a1.329 1.329 0 1 1 0 2.658zM30.671 30.613H1.329a1.329 1.329 0 1 1 0-2.658h29.342a1.329 1.329 0 1 1 0 2.658z"
        style="fill:var(--color1, #004835)" />
      <path fill="#004835"
        d="M29.638 29.369H2.362a1.055 1.055 0 0 1-1.054-1.054V4.144c0-.581.473-1.054 1.054-1.054H29.64c.581 0 1.054.473 1.054 1.054v24.171c0 .581-.473 1.054-1.056 1.054zM2.591 28.084h26.816V4.376H2.591v23.708z"
        style="fill:var(--color1, #004835)" />
      <path fill="#004835"
        d="M15.377 9.076c-3.904 0-7.068 3.164-7.068 7.068s3.164 7.068 7.068 7.068a7.067 7.067 0 0 0 7.068-7.068h-7.068V9.076z"
        style="fill:var(--color1, #004835)" />
      <path fill="#004835"
        d="M24.59 15.029h-8.096V6.933h.514c4.179 0 7.582 3.4 7.582 7.582v.514zm-7.068-1.028h6.02a6.563 6.563 0 0 0-6.02-6.02v6.02z"
        style="fill:var(--color1, #004835)" />
    </symbol>
    <symbol id="icon-Bad" viewBox="0 0 32 32">
      <path fill="none" stroke="#004835" stroke-linecap="round" stroke-linejoin="round" stroke-miterlimit="10"
        stroke-width="2"
        d="M14.347 15.517a21.13 21.13 0 0 0-1.707-.079v-1.524h1.711v1.578l-.004.025zM17.128 15.914a21.931 21.931 0 0 0-1.698-.282l.004-.025v-3.885h1.707v4.142l-.012.05zM19.937 9.623v6.967l-.065.153a12.037 12.037 0 0 0-1.641-.567V9.624h1.707zM23.814 18.515V6.57h1.715v11.046l.029.07c-.604.253-1.2.534-1.743.828zM22.728 8.123V19.07l.041.066a9.065 9.065 0 0 0-.751.543c.094-.228.122-.501.069-.832-.09-.592-.514-1.102-1.147-1.528v-.004l.082-.108V8.128h1.707v-.004z"
        style="stroke:var(--color1, #004835)" />
      <path fill="none" stroke="#004835" stroke-linecap="round" stroke-linejoin="round" stroke-miterlimit="10"
        stroke-width="2"
        d="M18.229 9.623v6.552a22.203 22.203 0 0 0-1.102-.261l.012-.05v-4.142h-1.707v3.885l-.004.025c-.367-.05-.731-.087-1.086-.116l.004-.025v-1.578h-1.711v1.524c-.731-.004-1.343.041-1.768.124-.233.05-.478.112-.739.195-.31-.957-.449-1.984-.449-3.036 0-5.67 4.532-10.259 10.117-10.259S29.909 7.05 29.909 12.72c0 1.367-.265 2.667-.739 3.856-.016 0-.029 0-.045.004-1 .141-2.307.559-3.576 1.102l-.029-.07V6.57h-1.715v11.949a13.49 13.49 0 0 0-1.045.617l-.041-.066V8.123h-1.707v9.079l-.082.108a6.294 6.294 0 0 0-1.074-.572l.065-.153V9.618h-1.694v.004zM4.875 24.5a.773.773 0 0 0-.678.861.773.773 0 0 0 .849.688.775.775 0 0 0 .678-.861.768.768 0 0 0-.849-.688zM.951 30.154.004 19.948l4.413-1.383 3.944 6.461.212 1.653L.95 30.154z"
        style="stroke:var(--color1, #004835)" />
      <path fill="none" stroke="#004835" stroke-linecap="round" stroke-linejoin="round" stroke-miterlimit="10"
        stroke-width="2"
        d="M19.92 25.507c-4.748.36-5.708-2.796-11.562-.476L4.414 18.57c1.441-.841 3.879-2.22 5.716-2.808a7.55 7.55 0 0 1 .739-.195c.425-.083 1.041-.128 1.768-.124.523 0 1.098.029 1.707.079a23.94 23.94 0 0 1 2.784.398c.376.079.743.161 1.102.261.584.162 1.143.348 1.641.567.4.17.759.36 1.074.572v.004c.633.427 1.057.936 1.147 1.528.053.331.024.605-.069.832.22-.178.47-.36.751-.543.318-.211.67-.414 1.045-.617.547-.294 1.139-.58 1.743-.832 1.27-.543 2.576-.957 3.576-1.102.016-.004.029-.004.045-.004 1.009-.133 2.495-.041 2.593 1.276.147 2.112-9.088 7.439-11.856 7.646z"
        style="stroke:var(--color1, #004835)" />
      <path fill="none" stroke="#004835" stroke-linecap="round" stroke-linejoin="round" stroke-miterlimit="2.613"
        stroke-width="2"
        d="M4.414 18.565c1.441-.841 3.879-2.22 5.716-2.808a7.55 7.55 0 0 1 .739-.195c.425-.083 1.041-.128 1.768-.124.523 0 1.098.029 1.707.079a23.94 23.94 0 0 1 2.784.398c.376.079.743.162 1.102.261.584.162 1.143.348 1.641.567.4.17.759.36 1.074.572v.004c.633.427 1.057.936 1.147 1.528.053.331.024.605-.069.832-.78 1.872-6.087.282-7.169-.004"
        style="stroke:var(--color1, #004835)" />
      <path fill="none" stroke="#004835" stroke-linecap="round" stroke-linejoin="round" stroke-miterlimit="2.613"
        stroke-width="2"
        d="M8.355 25.026c5.855-2.315 6.814.837 11.562.476 2.772-.207 12.003-5.534 11.848-7.65-.094-1.313-1.584-1.408-2.593-1.276-.016 0-.029 0-.045.004-1 .141-2.307.559-3.576 1.102-.6.253-1.196.538-1.743.832a13.49 13.49 0 0 0-1.045.617 9.065 9.065 0 0 0-.751.543"
        style="stroke:var(--color1, #004835)" />
      <path fill="none" stroke="#004835" stroke-linecap="round" stroke-linejoin="round" stroke-miterlimit="2.613"
        stroke-width="2" d="m8.357 25.026.208 1.657-7.614 3.471L0 19.948l4.413-1.383 3.944 6.461z"
        style="stroke:var(--color1, #004835)" />
      <path fill="none" stroke="#004835" stroke-linecap="round" stroke-linejoin="round" stroke-miterlimit="2.613"
        stroke-width="2"
        d="M4.876 24.5c.425-.05.8.257.849.688a.771.771 0 0 1-.678.861.77.77 0 0 1-.849-.688.78.78 0 0 1 .678-.861zM23.816 18.515V6.57h1.711v11.046M21.023 17.202V8.123h1.707V19.07M18.23 16.188V9.623h1.707v6.967M15.434 15.608v-3.885h1.707v4.142M12.641 15.467v-1.553h1.711v1.578"
        style="stroke:var(--color1, #004835)" />
      <path fill="none" stroke="#004835" stroke-linecap="round" stroke-linejoin="round" stroke-miterlimit="2.613"
        stroke-width="2"
        d="M10.137 15.786a.079.079 0 0 1-.008-.029c-.31-.957-.449-1.984-.449-3.036 0-5.67 4.532-10.259 10.117-10.259S29.91 7.051 29.91 12.721c0 1.367-.265 2.667-.739 3.856 0 .004-.004.004-.004.008"
        style="stroke:var(--color1, #004835)" />
    </symbol>
    <symbol id="icon-Insurance" viewBox="0 0 32 32">
      <path fill="none" stroke="#004835" stroke-linecap="round" stroke-linejoin="round" stroke-miterlimit="10"
        stroke-width="2"
        d="M17.426 23.265c.103-.301.255-.681.983-.702.991-.017 4.104.806 5.132 1.228.489.201.81.426.917.718.21.555-1.303 4.185-1.554 5.133-.103.409-.165.627-.535.443-1.415-.71-2.796-2.773-4.355-3.721-.489-.297-.983-.501-1.114-.881a.55.55 0 0 1-.029-.192c-.004-.526.407-1.579.555-2.026zm4.125 2.026a.55.55 0 0 0 .09.768c.234.192.576.15.757-.088a.558.558 0 0 0-.082-.777.546.546 0 0 0-.765.096zM10.442 25.291a.54.54 0 0 0-.761-.092.562.562 0 0 0-.086.777.537.537 0 0 0 .761.088.553.553 0 0 0 .086-.773zm-1.349 4.352c-.243-.952-1.764-4.578-1.558-5.133.111-.288.432-.518.921-.718 1.028-.422 4.141-1.245 5.132-1.228.728.021.88.401.983.702.144.443.555 1.499.555 2.03a.594.594 0 0 1-.025.188c-.127.38-.629.585-1.114.881-1.563.948-2.944 3.012-4.359 3.722-.37.188-.424-.029-.535-.443z"
        style="stroke:var(--color1, #004835)" />
      <path fill="none" stroke="#004835" stroke-linecap="round" stroke-linejoin="round" stroke-miterlimit="10"
        stroke-width="2"
        d="M20.149 17.814c.674-1.023 3.133-3.208 5.116-3.993.835-.33 1.583-.413 2.077-.05.189.138.308.288.374.451h.004c.148-1.458 1.122-3.934 2.019-5.133.428-.585 1.234-1.316 1.928-.702 1.118.982-.863 8.295-2.142 9.799-2.184 2.581-4.207 1.495-5.983 5.601-1.028-.422-4.141-1.245-5.132-1.228.345-1.299.995-3.617 1.739-4.745zM8.456 23.791c-1.776-4.106-3.795-3.02-5.987-5.601C1.19 16.686-.788 9.373.331 8.391c.699-.614 1.501.117 1.929.702.896 1.199 1.867 3.671 2.023 5.129.062-.159.181-.309.37-.447.715-.526 1.974-.113 3.257.639 1.678.994 3.388 2.573 3.935 3.4.748 1.128 1.394 3.446 1.743 4.749-.991-.017-4.104.81-5.132 1.228zM24.139 8.738v2.414h-2.377c0-1.328 1.069-2.414 2.377-2.414zM24.139 1.846V4.26c-1.308 0-2.377-1.082-2.377-2.414h2.377zM16.158 7.502v-.806c.123.038.214.084.263.155a.373.373 0 0 1 .082.238.388.388 0 0 1-.095.263.462.462 0 0 1-.251.15zM15.863 5.309v.714a.385.385 0 0 1-.193-.15.337.337 0 0 1-.066-.2.38.38 0 0 1 .259-.363z"
        style="stroke:var(--color1, #004835)" />
      <path fill="none" stroke="#004835" stroke-linecap="round" stroke-linejoin="round" stroke-miterlimit="10"
        stroke-width="2"
        d="M15.664 7.293a.73.73 0 0 1-.123-.28l-.526.063c.041.267.132.476.275.622a.952.952 0 0 0 .572.263v.38h.292v-.384c.267-.046.469-.15.621-.317a.932.932 0 0 0 .222-.627c0-.221-.062-.405-.177-.547s-.337-.259-.666-.343v-.802a.406.406 0 0 1 .243.326l.514-.067c-.037-.209-.111-.376-.238-.493a.883.883 0 0 0-.518-.226v-.205h-.292v.205a.821.821 0 0 0-.555.263c-.14.15-.214.338-.214.564s.066.413.189.568c.119.159.317.276.58.351v.86a.59.59 0 0 1-.197-.175zm.341-3.555c1.501 0 2.722 1.236 2.722 2.761 0 1.529-1.221 2.765-2.722 2.765s-2.718-1.236-2.718-2.765c0-1.525 1.217-2.761 2.718-2.761zM7.871 1.846h2.377c0 1.332-1.065 2.414-2.377 2.414V1.846z"
        style="stroke:var(--color1, #004835)" />
      <path fill="none" stroke="#004835" stroke-linecap="round" stroke-linejoin="round" stroke-miterlimit="10"
        stroke-width="2"
        d="M16.005 9.264c1.501 0 2.722-1.236 2.722-2.765 0-1.525-1.221-2.761-2.722-2.761s-2.718 1.236-2.718 2.761c0 1.529 1.217 2.765 2.718 2.765zM7.871 4.26c1.312 0 2.377-1.082 2.377-2.414h11.514c0 1.332 1.069 2.414 2.377 2.414v4.478c-1.308 0-2.377 1.086-2.377 2.414H10.248c0-1.328-1.065-2.414-2.377-2.414V4.26z"
        style="stroke:var(--color1, #004835)" />
      <path fill="none" stroke="#004835" stroke-linecap="round" stroke-linejoin="round" stroke-miterlimit="10"
        stroke-width="2" d="M7.871 8.738c1.312 0 2.377 1.086 2.377 2.414H7.871V8.738z"
        style="stroke:var(--color1, #004835)" />
      <path fill="none" stroke="#004835" stroke-linecap="round" stroke-linejoin="round" stroke-miterlimit="2.613"
        stroke-width="2"
        d="M18.41 22.563c.345-1.303.995-3.621 1.739-4.749.674-1.023 3.133-3.208 5.116-3.993.835-.33 1.583-.413 2.077-.05.189.138.308.288.374.451.535 1.328-2.887 3.216-3.565 3.621"
        style="stroke:var(--color1, #004835)" />
      <path fill="none" stroke="#004835" stroke-linecap="round" stroke-linejoin="round" stroke-miterlimit="2.613"
        stroke-width="2"
        d="M23.543 23.791c1.776-4.106 3.8-3.02 5.983-5.601 1.283-1.504 3.265-8.817 2.142-9.799-.699-.614-1.501.117-1.929.702-.896 1.199-1.871 3.676-2.019 5.133M23.541 23.791c.489.201.81.426.917.718.21.555-1.303 4.185-1.554 5.133-.103.409-.165.627-.535.443-1.415-.71-2.796-2.773-4.355-3.721-.489-.297-.983-.501-1.114-.881a.528.528 0 0 1-.029-.192c0-.53.411-1.583.559-2.026.103-.301.255-.681.983-.702.987-.017 4.1.81 5.128 1.228z"
        style="stroke:var(--color1, #004835)" />
      <path fill="none" stroke="#004835" stroke-linecap="round" stroke-linejoin="round" stroke-miterlimit="2.613"
        stroke-width="2"
        d="M21.552 25.291a.545.545 0 0 1 .765-.092.558.558 0 0 1 .082.777.532.532 0 0 1-.757.088.557.557 0 0 1-.09-.773zM4.285 14.226c-.526 1.332 2.883 3.216 3.561 3.621M13.587 22.563c-.35-1.303-.995-3.621-1.744-4.749-.547-.827-2.258-2.41-3.935-3.4-1.279-.752-2.541-1.165-3.257-.639a1.023 1.023 0 0 0-.37.447"
        style="stroke:var(--color1, #004835)" />
      <path fill="none" stroke="#004835" stroke-linecap="round" stroke-linejoin="round" stroke-miterlimit="2.613"
        stroke-width="2"
        d="M8.456 23.791c-1.776-4.106-3.795-3.02-5.987-5.601C1.19 16.686-.788 9.373.331 8.391c.699-.614 1.501.117 1.929.702.896 1.199 1.867 3.671 2.023 5.129v.004"
        style="stroke:var(--color1, #004835)" />
      <path fill="none" stroke="#004835" stroke-linecap="round" stroke-linejoin="round" stroke-miterlimit="2.613"
        stroke-width="2"
        d="M8.456 23.791c-.489.201-.806.426-.921.718-.206.556 1.312 4.185 1.558 5.133.107.409.164.627.53.443 1.419-.71 2.796-2.773 4.359-3.722.485-.296.987-.501 1.114-.881a.625.625 0 0 0 .025-.188c0-.53-.411-1.587-.555-2.03-.103-.301-.255-.681-.983-.702-.987-.017-4.1.81-5.128 1.228z"
        style="stroke:var(--color1, #004835)" />
      <path fill="none" stroke="#004835" stroke-linecap="round" stroke-linejoin="round" stroke-miterlimit="2.613"
        stroke-width="2"
        d="M10.441 25.291a.54.54 0 0 0-.761-.092.562.562 0 0 0-.086.777.537.537 0 0 0 .761.088.553.553 0 0 0 .086-.773z"
        style="stroke:var(--color1, #004835)" />
      <path fill="none" stroke="#004835" stroke-linecap="round" stroke-linejoin="round" stroke-miterlimit="10"
        stroke-width="2"
        d="M7.871 8.738V4.26M21.764 11.152h-11.51M24.139 4.261v4.478M10.254 1.846h11.51M21.762 1.846h2.377V4.26c-1.308 0-2.377-1.082-2.377-2.414zM10.254 1.846H7.877V4.26c1.312 0 2.377-1.082 2.377-2.414zM10.254 11.152H7.877V8.738c1.312 0 2.377 1.086 2.377 2.414zM21.762 11.152h2.377V8.738c-1.308 0-2.377 1.086-2.377 2.414zM16.005 3.738c1.501 0 2.722 1.236 2.722 2.761 0 1.529-1.221 2.765-2.722 2.765s-2.718-1.236-2.718-2.765c0-1.525 1.217-2.761 2.718-2.761z"
        style="stroke:var(--color1, #004835)" />
    </symbol>
    <symbol id="icon-Bag" viewBox="0 0 32 32">
      <path fill="#004835"
        d="M21.275 7.44a.654.654 0 0 1-.658-.651V4.275c0-.96-.79-1.744-1.764-1.744h-5.702c-.971 0-1.764.781-1.764 1.744v2.514c0 .359-.295.651-.658.651s-.658-.291-.658-.651V4.275c0-1.678 1.382-3.045 3.08-3.045h5.702c1.698 0 3.08 1.366 3.08 3.045v2.514a.655.655 0 0 1-.658.651z"
        style="fill:var(--color1, #004835)" />
      <path fill="#004835"
        d="M21.275 5.44c.719 0 1.342.582 1.342 1.349h-4a2.654 2.654 0 0 0 2.658 2.651v-4zm1.342 1.349V4.275h-4v2.514h4zm0-2.514c0-2.085-1.705-3.744-3.764-3.744v4a.245.245 0 0 1-.236-.256h4zM18.853.532h-5.702v4h5.702v-4zm-5.703 0c-2.052 0-3.764 1.652-3.764 3.744h4a.245.245 0 0 1-.236.256v-4zM9.387 4.275v2.514h4V4.275h-4zm0 2.514c0-.767.623-1.349 1.342-1.349v4a2.654 2.654 0 0 0 2.658-2.651h-4zm1.342-1.349c.719 0 1.342.582 1.342 1.349h-4a2.654 2.654 0 0 0 2.658 2.651v-4zm1.341 1.349V4.275h-4v2.514h4zm0-2.514c0-.552.465-1.045 1.08-1.045v-4c-2.781 0-5.08 2.24-5.08 5.045h4zm1.08-1.044h5.702v-4H13.15v4zm5.703 0c.615 0 1.08.493 1.08 1.045h4c0-2.805-2.3-5.045-5.08-5.045v4zm1.08 1.044v2.514h4V4.275h-4zm0 2.514c0-.767.622-1.349 1.342-1.349v4a2.654 2.654 0 0 0 2.658-2.651h-4z"
        style="fill:var(--color1, #004835)" />
      <path fill="#fff" stroke="#004835" stroke-width="2"
        d="M5.943 16.107a.601.601 0 0 1-.297-.08l-.001-.001-4.641-2.714v-2.736c0-.553.465-1.03 1.053-1.03h27.89c.588 0 1.053.477 1.053 1.03v2.736l-4.641 2.714-.001.001a.591.591 0 0 1-.297.08H5.942zM28.037 18.873l2.957-1.731V28.74c0 .553-.465 1.03-1.053 1.03H2.053A1.048 1.048 0 0 1 1 28.74V17.141l2.963 1.733c.599.35 1.284.535 1.976.535h4.995v1.28c0 1.963 1.607 3.535 3.564 3.535h3.004c1.958 0 3.564-1.571 3.564-3.535v-1.28h4.995c.696 0 1.378-.185 1.977-.535z"
        style="fill:var(--color3, #fff);stroke:var(--color1, #004835)" />
      <path fill="#004835" stroke="#004835" stroke-width="2"
        d="M17.456 20.877h-2.909c-.026 0-.051-.01-.072-.03s-.026-.04-.026-.055.005-.035.026-.055.046-.03.072-.03h2.909c.026 0 .052.01.072.03s.026.04.026.055c0 .017-.006.036-.025.055s-.045.03-.073.03z"
        style="fill:var(--color1, #004835);stroke:var(--color1, #004835)" />
    </symbol>
    <symbol id="icon-Deposit" viewBox="0 0 32 32">
      <path fill="none" stroke="#004835" stroke-linecap="round" stroke-linejoin="round" stroke-miterlimit="10"
        stroke-width="2"
        d="M23.07 19.352a16.93 16.93 0 0 0 2.619.125c.156 0 .308-.008.46-.017.086-.004.173-.008.255-.017.173-.012.341-.025.506-.041l.325-.037c.078-.008.16-.017.234-.029l.078-.012a12.34 12.34 0 0 0 1.859-.389 7.453 7.453 0 0 0 .946-.344h.008c.095-.046.185-.083.271-.128a3.44 3.44 0 0 0 .485-.277c.559.377.884.803.884 1.262s-.321.894-.884 1.259a5.347 5.347 0 0 1-.485.277c-.086.046-.177.083-.271.128h-.008c-.099.046-.193.079-.292.12a7.676 7.676 0 0 1-.654.224 12.496 12.496 0 0 1-1.859.389l-.078.012a4.154 4.154 0 0 1-.234.029c-.107.017-.218.025-.325.037-.164.017-.333.029-.506.041-.082.008-.169.012-.255.017-.107.004-.214.012-.321.017-.086 0-.173.004-.259.004-.115.004-.234.004-.349.004-1.184 0-2.303-.112-3.273-.319a6.473 6.473 0 0 1-.942.513c1.365-.621 2.179-1.42 2.179-2.293 0-.19-.041-.372-.115-.555zM23.184 16.351c0-.646-.448-1.25-1.238-1.776a5.233 5.233 0 0 1-.502.294 4.96 4.96 0 0 0 .95-.642l.004.004a16.623 16.623 0 0 0 3.293.224c.156-.004.313-.008.465-.017a18.399 18.399 0 0 0 1.39-.132 11.661 11.661 0 0 0 2.229-.509c.103-.037.206-.07.304-.112.095-.037.185-.075.267-.108.177-.075.341-.157.489-.244.062-.033.115-.062.173-.099.045-.025.086-.054.123-.079.555.373.863.795.863 1.246 0 .46-.321.89-.884 1.258a3.44 3.44 0 0 1-.485.277 3.773 3.773 0 0 1-.271.128h-.008a3.992 3.992 0 0 1-.292.12 7.676 7.676 0 0 1-.654.224 12.496 12.496 0 0 1-1.859.389l-.078.012a4.154 4.154 0 0 1-.234.029c-.107.017-.218.025-.325.037a9.393 9.393 0 0 1-.51.041c-.082.008-.169.012-.251.017-.152.008-.304.012-.46.017s-.313.008-.469.008c-.74 0-1.451-.046-2.117-.128.058-.157.086-.319.086-.48zM5.304 18.144c-.773.522-1.221 1.126-1.221 1.764 0 .215.053.426.148.633-2.479-.381-4.227-1.3-4.227-2.372 0-.459.325-.886.876-1.263h.004a5.593 5.593 0 0 0 1.057.526c.078.029.152.058.234.087.037.017.078.029.119.041.07.025.14.05.214.07.802.248 1.756.426 2.796.513zM4.095 12.948c.066.625.563 1.213 1.373 1.718a4.289 4.289 0 0 1-.14-.087c-.436.29-.769.6-.979.935h-.004c-.473-.07-.921-.157-1.34-.265-.107-.029-.218-.058-.321-.087-.107-.033-.218-.066-.321-.099l-.148-.05c-.119-.041-.238-.087-.358-.132a5.518 5.518 0 0 1-.974-.492c-.563-.373-.884-.803-.884-1.262 0-.455.325-.89.884-1.258.181.116.391.232.617.339.28.132.592.257.937.36.123.046.251.083.382.108.123.041.247.07.374.095.037.008.078.021.119.029.251.05.51.104.781.149zM.004 8.101c0-1.412 3.034-2.558 6.776-2.558.325 0 2.956.19 3.408.373-3.573.522-6.11 1.834-6.11 3.361 0 .439.21.865.596 1.254-.169-.021-.333-.046-.497-.07s-.325-.054-.481-.083a13.383 13.383 0 0 1-.9-.211 9.162 9.162 0 0 1-.794-.253h-.004c-.123-.05-.243-.095-.354-.145a8.669 8.669 0 0 1-.329-.153c-.053-.029-.103-.054-.152-.083l-.086-.05c-.021-.012-.041-.025-.066-.037C.378 9.057.004 8.593.004 8.101z"
        style="stroke:var(--color1, #004835)" />
      <path fill="none" stroke="#004835" stroke-linecap="round" stroke-linejoin="round" stroke-miterlimit="10"
        stroke-width="2"
        d="M21.947 21.687c.97.207 2.089.319 3.273.319.115 0 .234 0 .349-.004.086 0 .177-.004.259-.004.107-.004.218-.012.321-.017.086-.004.173-.008.255-.017.173-.012.341-.025.506-.041l.325-.037c.078-.008.16-.017.234-.029l.078-.012c.535-.075 1.04-.17 1.501-.29l.358-.099c.234-.07.448-.141.654-.224.099-.037.201-.075.292-.12h.008c.095-.041.185-.083.271-.128a4.486 4.486 0 0 0 .486-.277c.559.377.884.803.884 1.267 0 1.412-3.034 2.554-6.78 2.554-.822 0-1.608-.058-2.335-.157a1.56 1.56 0 0 0 .304-.902c-.004-.646-.452-1.254-1.242-1.78zM25.22 19.485c-.748 0-1.472-.05-2.15-.133-.177-.439-.567-.853-1.122-1.225.592-.393.995-.832 1.155-1.3a16.428 16.428 0 0 0 2.586.12c.156 0 .308-.008.46-.017.082-.004.169-.008.251-.017.173-.008.341-.025.51-.041l.325-.037c.078-.008.16-.017.234-.029l.078-.012a12.34 12.34 0 0 0 1.859-.389 7.453 7.453 0 0 0 .946-.344h.008c.095-.046.185-.087.271-.128.177-.087.341-.178.485-.277.559.377.884.807.884 1.267s-.321.89-.884 1.258a3.344 3.344 0 0 1-.485.277c-.086.046-.177.083-.271.128h-.008a2.765 2.765 0 0 1-.292.12 7.676 7.676 0 0 1-.654.224 12.496 12.496 0 0 1-1.859.389l-.078.012a4.154 4.154 0 0 1-.234.029c-.107.017-.218.025-.325.037-.165.017-.333.029-.506.041-.082.008-.169.012-.255.017-.152.008-.304.012-.46.017a9.146 9.146 0 0 1-.469.012zM25.221 14.459c-1.007 0-1.961-.083-2.82-.232l-.004-.004c.51-.435.79-.923.79-1.432 0-.637-.44-1.238-1.213-1.759.699-.468 1.122-1.002 1.201-1.569.645-.079 1.332-.12 2.043-.12 3.741 0 6.78 1.147 6.78 2.558 0 .451-.313.882-.863 1.246a1.059 1.059 0 0 1-.123.079c-.053.033-.111.07-.173.099a4.843 4.843 0 0 1-.489.244c-.09.041-.177.079-.267.108a3.407 3.407 0 0 1-.304.112c-.641.224-1.398.397-2.228.509-.09.017-.189.029-.284.037-.358.046-.724.079-1.106.095-.156.008-.308.012-.465.017a9.215 9.215 0 0 1-.473.012zM4.083 16.351c0 .65.452 1.254 1.242 1.776-.008.004-.012.008-.021.017H5.3c-1.04-.087-1.994-.265-2.792-.513a5.927 5.927 0 0 1-.214-.07.686.686 0 0 1-.119-.041c-.082-.029-.156-.058-.234-.087a5.427 5.427 0 0 1-.876-.414c-.062-.037-.123-.07-.181-.112H.88c-.559-.372-.876-.803-.876-1.258 0-.46.325-.894.884-1.263.115.079.238.149.374.219.181.099.382.19.6.273.111.05.23.091.358.133l.148.05c.103.037.214.07.321.099.103.029.214.058.321.087.419.108.868.199 1.34.265-.173.265-.267.55-.267.84zM5.295 11.032c-.769.526-1.213 1.122-1.213 1.759 0 .05.004.099.008.149a16.657 16.657 0 0 1-.773-.149c-.041-.008-.082-.021-.119-.029-.127-.033-.251-.062-.374-.095a7.927 7.927 0 0 1-1.319-.468 5.552 5.552 0 0 1-.617-.339c-.563-.377-.884-.807-.884-1.263s.312-.878.859-1.246c.053.037.103.07.16.099.025.012.045.025.066.037a.515.515 0 0 0 .086.05c.049.029.099.058.152.083.103.058.214.108.329.153.111.054.23.099.354.145h.004c.243.095.51.182.794.252.28.083.584.149.9.211.156.033.317.062.481.083.16.029.329.05.497.07h.004c.086.095.189.186.3.269.053.05.107.091.169.128.037.037.086.066.136.099zM21.446 18.425a3.948 3.948 0 0 1-.374.186c.127-.058.255-.124.374-.186zM20.668 18.789l.21-.086M20.454 18.876c-.07.029-.144.058-.222.078.078-.025.148-.053.222-.078zM17.395 16.107a19.043 19.043 0 0 0 0 0zM17.395 19.667c.185-.029.366-.062.543-.095-.181.033-.362.066-.543.095zM17.395 23.223a10.914 10.914 0 0 0 0 0zM17.416 12.588a9.485 9.485 0 0 0 0 0zM16.918 12.662l.502-.074c-.165.029-.337.053-.502.074zM17.355 19.675a11.65 11.65 0 0 1-.539.074l.539-.074zM17.322 16.119c-.169.029-.333.053-.506.074l.506-.074zM16.205 16.264c.206-.02.407-.045.604-.07a9.599 9.599 0 0 1-.604.07zM16.205 19.824c.206-.021.407-.045.604-.074M16.285 12.741c.152-.017.3-.033.448-.053-.144.021-.296.037-.448.053zM16.205 23.38c.152-.012.304-.033.452-.053-.148.021-.3.037-.452.053zM16.203 16.264c-.206.025-.411.041-.621.058.206-.017.415-.037.621-.058zM16.203 19.824c-.206.025-.411.041-.621.058.206-.017.415-.037.621-.058zM16.203 23.38c-.14.017-.28.029-.424.041M16.171 12.754a20.513 20.513 0 0 1 0 0zM15.583 16.322c-.165.016-.329.025-.493.037.169-.012.333-.021.493-.037zM15.583 19.878c-.165.016-.329.025-.493.037.169-.012.333-.021.493-.037z"
        style="stroke:var(--color1, #004835)" />
      <path fill="none" stroke="#004835" stroke-linecap="round" stroke-linejoin="round" stroke-miterlimit="10"
        stroke-width="2"
        d="M13.633 5.671c5.275 0 9.551 1.614 9.551 3.606 0 .062-.004.124-.012.186-.078.571-.502 1.101-1.2 1.569a4.624 4.624 0 0 1-.424.257 1.26 1.26 0 0 1-.193.104c-.041.025-.086.046-.127.066-.074.037-.148.07-.226.108a5.75 5.75 0 0 1-.3.128s0 .004-.004.004c-.103.041-.206.083-.313.12a6.45 6.45 0 0 1-.333.12c-.111.037-.226.079-.345.112-.354.108-.724.211-1.122.302-.214.05-.432.091-.662.137a9.485 9.485 0 0 1-.506.091 10.1 10.1 0 0 1-.502.075l-.181.025c-.148.021-.296.037-.448.054a5.353 5.353 0 0 0-.115.012c-.189.021-.378.037-.576.054-.185.017-.37.029-.559.041-.14.004-.284.012-.424.017a23.985 23.985 0 0 1-2.389-.021 12.143 12.143 0 0 1-.547-.037c-.197-.017-.391-.033-.576-.054l-.111-.012a9.72 9.72 0 0 1-.506-.062c-.045-.004-.086-.012-.127-.017l-.498-.075c-.181-.029-.358-.062-.53-.091a12.473 12.473 0 0 1-.641-.133c-.132-.033-.259-.066-.391-.095l-.337-.087-.037-.012c-.119-.033-.238-.07-.362-.103-.033-.012-.066-.021-.09-.029a5.98 5.98 0 0 1-.251-.087c-.111-.041-.226-.079-.333-.12a10.543 10.543 0 0 1-.617-.252c-.099-.046-.193-.087-.28-.137-.004 0-.004 0-.008-.004a7.375 7.375 0 0 1-.255-.137 3.731 3.731 0 0 1-.382-.232c-.016-.012-.033-.021-.045-.029-.049-.037-.095-.066-.14-.099-.053-.041-.115-.083-.169-.128a3.185 3.185 0 0 1-.3-.269h-.004c-.386-.393-.596-.816-.596-1.254 0-1.532 2.537-2.844 6.11-3.361a22.309 22.309 0 0 1 3.433-.248zM11.684 16.322c.165.017.329.025.498.037M12.181 19.915c-.169-.012-.333-.021-.498-.037M11.066 16.264c.206.021.411.041.617.058-.206-.017-.411-.033-.617-.058zM11.066 19.824c.206.021.411.041.617.058-.206-.017-.411-.033-.617-.058zM11.098 12.754a20.513 20.513 0 0 0 0 0zM11.066 23.38c.107.012.222.025.337.033a8.333 8.333 0 0 1-.337-.033zM10.459 16.194a9.956 9.956 0 0 0 0 0zM10.459 19.75a14.648 14.648 0 0 0 0 0zM10.613 23.326c.148.021.3.041.452.053-.152-.017-.304-.033-.452-.053zM10.48 12.679c.164.025.333.045.506.062M9.949 16.119c.169.025.337.053.51.074a9.765 9.765 0 0 1-.51-.074zM9.918 19.675c.177.029.358.053.543.074l-.543-.074zM9.855 12.588a9.772 9.772 0 0 0 0 0zM9.313 16.008c.185.037.37.07.563.099M9.313 19.564c.185.037.37.07.563.099M9.313 23.123c.185.037.37.07.563.099-.193-.033-.378-.062-.563-.099zM9.324 12.493c.173.033.349.066.53.091M7.742 19.187l.247.074c-.086-.025-.169-.045-.247-.074z"
        style="stroke:var(--color1, #004835)" />
      <path fill="none" stroke="#004835" stroke-linecap="round" stroke-linejoin="round" stroke-miterlimit="10"
        stroke-width="2"
        d="M13.633 27.077c-5.271 0-9.547-1.614-9.547-3.606 0-.65.452-1.254 1.242-1.78.045.033.09.062.14.091.004.004.012.004.016.012.078.046.152.091.234.132.173.095.354.191.551.277.288.133.6.257.937.373.123.046.255.087.395.128.103.033.214.066.325.091.119.037.247.066.374.099.325.083.666.162 1.02.228.185.037.37.07.563.099.243.041.485.07.736.104.148.021.3.037.452.054.111.012.226.025.337.033.267.025.543.046.818.062.144.008.288.017.436.021a24.05 24.05 0 0 0 3.544-.115c.152-.017.304-.033.452-.054.247-.029.497-.066.736-.104.185-.029.366-.062.543-.099a14.735 14.735 0 0 0 1.772-.435c.119-.037.234-.079.349-.112a8.67 8.67 0 0 0 .946-.377c.354-.157.666-.331.942-.513.789.526 1.238 1.13 1.238 1.78 0 .31-.103.617-.304.902-1.065 1.561-4.802 2.707-9.247 2.707zM7.038 18.955a7.443 7.443 0 0 1 0 0zM6.199 18.611c.066.033.132.062.197.086-.07-.021-.132-.053-.197-.086zM5.83 18.425c.115.062.243.124.374.186a3.52 3.52 0 0 1-.374-.186zM5.652 18.33a1.73 1.73 0 0 0 0 0z"
        style="stroke:var(--color1, #004835)" />
      <path fill="none" stroke="#004835" stroke-linecap="round" stroke-linejoin="round" stroke-miterlimit="10"
        stroke-width="2"
        d="M21.947 14.575c.789.526 1.238 1.13 1.238 1.776 0 .161-.029.323-.082.476-.16.468-.563.911-1.155 1.3a4.375 4.375 0 0 1-.502.298 7.678 7.678 0 0 1-.781.36c-.07.033-.14.062-.214.087-.074.029-.144.058-.222.079-.678.248-1.451.455-2.298.613-.177.037-.358.07-.543.095-.017.004-.029.004-.041.008-.177.029-.354.054-.539.075H16.8c-.201.029-.399.054-.604.075s-.411.041-.621.058c-.16.017-.325.025-.493.037a23.985 23.985 0 0 1-2.43.02c-.14-.004-.275-.012-.411-.017-.025-.004-.045-.004-.066-.004-.168-.012-.333-.021-.498-.037-.21-.017-.415-.037-.617-.058a13.648 13.648 0 0 1-.604-.075l-.543-.075c-.016-.004-.033-.004-.045-.008l-.563-.099c-.469-.087-.909-.19-1.328-.306l-.247-.075a8.041 8.041 0 0 1-.703-.232 10.447 10.447 0 0 1-.641-.253l-.197-.087c-.127-.062-.255-.124-.374-.186-.062-.033-.119-.066-.177-.095-.115-.066-.226-.128-.325-.203-.789-.522-1.242-1.126-1.242-1.776 0-.29.09-.571.259-.84h.004c.21-.335.543-.646.979-.935.045.033.09.062.14.087.004.004.012.004.016.012.078.046.152.087.234.133.037.021.078.041.111.062.136.075.284.145.436.219.09.046.193.083.292.124.415.174.872.331 1.365.468.119.037.247.07.374.099.325.087.666.162 1.02.228.185.037.37.07.563.099l.078.012c.164.029.337.054.51.075.197.029.399.054.604.07.206.025.411.041.617.058.165.017.329.025.498.037.021 0 .041 0 .066.004.136.004.271.012.411.017.321.012.646.021.974.021.493 0 .983-.017 1.456-.041.164-.012.329-.021.493-.037.21-.017.415-.033.621-.058.206-.021.411-.046.604-.07h.008a10.263 10.263 0 0 0 .576-.087c.185-.029.366-.062.543-.095.242-.046.481-.099.715-.149.238-.058.473-.116.699-.182.493-.137.946-.29 1.357-.464.103-.041.206-.087.3-.128.156-.07.3-.141.44-.219.193-.091.358-.19.514-.29z"
        style="stroke:var(--color1, #004835)" />
      <path fill="none" stroke="#004835" stroke-linecap="round" stroke-linejoin="round" stroke-miterlimit="10"
        stroke-width="2"
        d="M4.082 12.795c0-.637.44-1.238 1.213-1.759.012.008.029.017.045.029.119.083.247.157.382.232.086.05.169.091.255.137.004.004.004.004.008.004.09.05.185.091.28.137a9.1 9.1 0 0 0 .617.252c.107.046.222.087.333.12.086.033.169.058.251.087.029.008.062.017.09.029.115.037.238.075.362.104l.037.012c.107.033.222.062.337.087.127.037.255.07.391.095.21.05.424.091.641.133.173.033.349.066.53.091.16.029.329.054.498.075.041.004.086.012.127.017.164.025.333.046.506.062l.111.012c.193.021.386.037.576.054.181.017.362.029.547.037.144.008.288.017.436.021.321.012.646.021.974.021s.658-.008.979-.021c.144-.004.284-.012.424-.017.189-.012.374-.025.559-.041.197-.017.386-.033.576-.054l.115-.012c.152-.017.3-.033.448-.054l.181-.025.502-.075c.173-.029.341-.058.506-.091.23-.046.448-.087.662-.137.391-.087.769-.191 1.122-.302a4.48 4.48 0 0 0 .345-.112 4.08 4.08 0 0 0 .333-.12 4.21 4.21 0 0 0 .313-.12l.004-.004c.103-.041.206-.083.3-.128.078-.037.152-.07.226-.108.045-.021.086-.041.127-.066.07-.033.132-.07.193-.104.152-.079.292-.17.424-.257.769.526 1.213 1.122 1.213 1.759 0 .509-.28.998-.79 1.432-.259.232-.58.443-.95.642-.14.07-.288.145-.44.219a11.08 11.08 0 0 1-1.657.592 14.46 14.46 0 0 1-.699.182c-.234.05-.469.104-.715.149-.177.037-.358.07-.543.095a66.086 66.086 0 0 1-.576.087h-.008a9.217 9.217 0 0 1-.604.07c-.206.021-.411.041-.621.058-.16.017-.325.025-.493.037a23.985 23.985 0 0 1-2.43.02c-.14-.004-.275-.012-.411-.017-.025-.004-.045-.004-.066-.004-.168-.012-.333-.021-.498-.037-.21-.017-.415-.037-.617-.058-.206-.021-.407-.046-.604-.07-.173-.021-.341-.05-.51-.075l-.078-.012-.563-.099a11.854 11.854 0 0 1-1.02-.228c-.123-.033-.247-.062-.374-.099a11.51 11.51 0 0 1-1.365-.468c-.099-.041-.197-.087-.292-.124-.152-.07-.3-.141-.436-.219-.037-.021-.078-.041-.111-.062-.082-.046-.156-.091-.234-.133-.004-.008-.012-.008-.016-.012-.81-.505-1.307-1.089-1.373-1.718h-.004v-.004c.004-.046 0-.099 0-.145zM4.082 19.907c0-.637.444-1.242 1.221-1.764h.004c.008-.008.012-.012.021-.017.099.07.206.137.325.203a.91.91 0 0 0 .177.095c.119.07.243.128.374.186.066.033.127.066.197.087.201.091.419.178.641.253a9.5 9.5 0 0 0 .703.232c.082.029.16.054.247.075.415.116.859.219 1.328.306.185.037.37.07.563.099.012.004.029.004.045.008.177.029.358.054.543.075.197.029.399.054.604.075.206.025.411.041.617.058.164.017.329.025.498.037.021 0 .041 0 .066.004.136.004.271.012.411.017.321.012.646.021.974.021.493 0 .983-.017 1.456-.041.165-.012.329-.021.493-.037.21-.017.415-.033.621-.058.206-.021.411-.046.604-.075h.008l.539-.075c.012-.004.025-.004.041-.008.185-.029.366-.062.543-.095a14.77 14.77 0 0 0 2.298-.613c.078-.025.152-.054.222-.079s.144-.054.214-.087l.21-.087.197-.087c.132-.058.251-.12.374-.186.181-.091.349-.195.502-.298.559.373.946.782 1.122 1.225.074.182.115.369.115.559 0 .873-.818 1.672-2.179 2.293-.288.133-.608.257-.946.377a13.835 13.835 0 0 1-1.406.398c-.234.054-.469.104-.715.149-.177.037-.358.07-.543.099-.238.041-.489.075-.736.104-.148.021-.3.041-.452.054a23.999 23.999 0 0 1-4.799.032c-.119-.008-.23-.021-.337-.033a7.341 7.341 0 0 1-.452-.054 27.202 27.202 0 0 1-.736-.104c-.193-.029-.378-.066-.563-.099a13.578 13.578 0 0 1-1.02-.228 48.74 48.74 0 0 0-.374-.099l-.325-.091c-.136-.046-.271-.087-.395-.128-.337-.116-.65-.24-.937-.372a7.86 7.86 0 0 1-.551-.277l-.234-.132c-.004-.008-.012-.008-.016-.012-.6-.372-1.028-.791-1.233-1.238a1.352 1.352 0 0 1-.169-.646zM5.152 10.932l.14.099c-.045-.033-.095-.062-.14-.099zM4.988 10.804a1.472 1.472 0 0 0 0 0zM4.688 10.531c.09.091.189.182.3.269a1.736 1.736 0 0 1-.3-.269z"
        style="stroke:var(--color1, #004835)" />
      <path fill="none" stroke="#004835" stroke-linecap="round" stroke-linejoin="round" stroke-miterlimit="10"
        stroke-width="2"
        d="M20.055 22.577a8.67 8.67 0 0 0 .946-.377c.354-.157.666-.331.942-.513.789.526 1.238 1.13 1.238 1.78 0 .31-.103.617-.304.902-1.065 1.556-4.802 2.703-9.247 2.703-5.271 0-9.547-1.614-9.547-3.606 0-.65.452-1.254 1.242-1.78.045.033.09.062.14.091"
        style="stroke:var(--color1, #004835)" />
      <path fill="none" stroke="#004835" stroke-linecap="round" stroke-linejoin="round" stroke-miterlimit="10"
        stroke-width="2"
        d="M18.648 22.979c.374-.087.724-.182 1.057-.286M12.219 23.476c.144.008.288.016.436.02M7.598 22.701c.103.033.214.066.325.091.119.037.247.066.374.099M5.48 21.791c.078.046.152.091.234.133.173.095.354.19.551.277.288.132.6.257.937.372M12.242 19.919c.136.004.271.012.411.017M5.309 18.143a.062.062 0 0 1 .021-.016"
        style="stroke:var(--color1, #004835)" />
      <path fill="none" stroke="#004835" stroke-linecap="round" stroke-linejoin="round" stroke-miterlimit="10"
        stroke-width="2"
        d="M21.946 18.127c.559.372.946.782 1.122 1.225.074.182.115.368.115.559 0 .873-.818 1.672-2.179 2.293-.288.133-.608.257-.946.377a13.835 13.835 0 0 1-1.406.398c-.234.054-.469.104-.715.149-.177.037-.358.07-.543.099-.238.041-.489.075-.736.104-.148.021-.3.037-.452.054a23.999 23.999 0 0 1-4.798.032c-.111-.008-.226-.021-.337-.033-.152-.017-.304-.033-.452-.054a27.202 27.202 0 0 1-.736-.104l-.563-.099a13.578 13.578 0 0 1-1.02-.228 48.74 48.74 0 0 0-.374-.099l-.325-.091c-.136-.046-.271-.087-.395-.128a9.886 9.886 0 0 1-.937-.373 7.86 7.86 0 0 1-.551-.277c-.082-.046-.156-.087-.234-.133-.004-.008-.012-.008-.016-.012-.6-.373-1.028-.791-1.233-1.238a1.51 1.51 0 0 1-.148-.633c0-.637.444-1.242 1.221-1.764"
        style="stroke:var(--color1, #004835)" />
      <path fill="none" stroke="#004835" stroke-linecap="round" stroke-linejoin="round" stroke-miterlimit="10"
        stroke-width="2"
        d="M20.7 15.217c.103-.041.206-.087.3-.128.156-.07.3-.141.44-.219.181-.095.349-.194.502-.294.789.526 1.238 1.13 1.238 1.776 0 .162-.029.323-.082.476-.16.468-.563.911-1.155 1.3a4.375 4.375 0 0 1-.502.298 3.948 3.948 0 0 1-.374.186 1.732 1.732 0 0 1-.197.087c-.07.033-.136.062-.21.087-.07.033-.14.062-.214.087-.07.029-.144.058-.222.079-.678.248-1.451.455-2.298.613-.177.037-.358.07-.543.095-.017.004-.029.004-.041.008a11.65 11.65 0 0 1-.539.075h-.008c-.197.029-.399.054-.604.075-.206.025-.411.041-.621.058-.165.017-.329.025-.493.037a23.985 23.985 0 0 1-2.43.02c-.14-.004-.275-.012-.411-.017-.025-.004-.045-.004-.066-.004-.169-.012-.333-.021-.498-.037-.21-.017-.415-.033-.617-.058a12.941 12.941 0 0 1-.604-.075l-.543-.075c-.016-.004-.033-.004-.045-.008L9.3 19.56c-.469-.087-.909-.19-1.328-.306a2.607 2.607 0 0 1-.247-.075 8.041 8.041 0 0 1-.703-.232 7.783 7.783 0 0 1-.641-.253c-.066-.025-.132-.058-.197-.087a4.645 4.645 0 0 1-.374-.186c-.062-.029-.119-.062-.177-.095-.115-.066-.226-.128-.325-.203-.789-.522-1.242-1.126-1.242-1.776 0-.29.09-.571.259-.84"
        style="stroke:var(--color1, #004835)" />
      <path fill="none" stroke="#004835" stroke-linecap="round" stroke-linejoin="round" stroke-miterlimit="10"
        stroke-width="2"
        d="M18.648 15.863c.238-.058.473-.116.699-.182M12.242 16.363c.136.004.271.012.411.017M7.922 15.681c.119.037.247.07.374.099M5.828 14.869c.136.075.284.145.436.219.09.046.193.083.292.124M5.48 14.675c.078.046.152.087.234.132M4.344 15.511c.21-.335.543-.646.979-.936.045.033.09.062.14.087M21.355 11.396c.07-.033.131-.07.193-.104M21.006 11.57c.078-.037.152-.07.226-.108M18.586 12.361c.391-.087.769-.191 1.122-.302a4.48 4.48 0 0 0 .345-.112 4.08 4.08 0 0 0 .333-.12c.107-.037.21-.075.312-.12l.004-.004M14.611 12.861c.144-.004.284-.012.424-.017M12.219 12.841c.144.008.288.016.436.021M7.961 12.174c.107.033.222.062.337.087.127.037.255.07.391.095M7.561 12.058c.115.037.238.075.362.104M6.883 11.822c.107.046.222.087.333.12.086.033.169.058.251.087M5.984 11.433c.09.05.185.091.28.137M5.719 11.293c.086.05.169.091.255.137M4.09 12.948c-.004-.054-.008-.104-.008-.153 0-.637.44-1.238 1.213-1.759"
        style="stroke:var(--color1, #004835)" />
      <path fill="none" stroke="#004835" stroke-linecap="round" stroke-linejoin="round" stroke-miterlimit="10"
        stroke-width="2"
        d="M21.973 11.032c.769.526 1.213 1.122 1.213 1.759 0 .509-.28.998-.789 1.432-.259.232-.58.443-.95.642-.14.07-.288.145-.44.219a11.08 11.08 0 0 1-1.657.592 14.46 14.46 0 0 1-.699.182c-.234.05-.469.104-.715.149-.177.037-.358.07-.543.095a10.263 10.263 0 0 1-.576.087h-.008a8.91 8.91 0 0 1-.604.07c-.206.025-.411.041-.621.058-.165.017-.329.025-.493.037a23.985 23.985 0 0 1-2.43.02c-.14-.004-.275-.012-.411-.017-.025-.004-.045-.004-.066-.004-.169-.012-.333-.021-.498-.037-.21-.017-.415-.033-.617-.058a27.523 27.523 0 0 1-.604-.07 9.757 9.757 0 0 1-.51-.075l-.078-.012-.563-.099a11.854 11.854 0 0 1-1.02-.228c-.123-.033-.247-.062-.374-.099a11.51 11.51 0 0 1-1.365-.468c-.099-.041-.197-.087-.292-.124-.152-.07-.3-.141-.436-.219-.037-.021-.078-.041-.111-.062-.082-.046-.156-.091-.234-.132-.004-.008-.012-.008-.016-.012-.81-.505-1.307-1.089-1.373-1.718"
        style="stroke:var(--color1, #004835)" />
      <path fill="none" stroke="#004835" stroke-linecap="round" stroke-linejoin="round" stroke-miterlimit="10"
        stroke-width="2"
        d="M4.678 10.531c-.386-.393-.596-.815-.596-1.254 0-1.532 2.537-2.844 6.11-3.361a23.73 23.73 0 0 1 3.441-.24c5.275 0 9.551 1.614 9.551 3.606 0 .062-.004.124-.012.186-.078.571-.502 1.101-1.201 1.569a4.624 4.624 0 0 1-.424.257 1.26 1.26 0 0 1-.193.104c-.041.025-.086.046-.128.066-.074.037-.148.07-.226.108a5.75 5.75 0 0 1-.3.128s0 .004-.004.004c-.103.041-.206.083-.313.12a6.45 6.45 0 0 1-.333.12c-.111.037-.226.079-.345.112-.354.108-.724.211-1.122.302-.214.05-.432.091-.662.137a15.931 15.931 0 0 1-1.008.166l-.181.025c-.148.021-.296.037-.448.054a25.075 25.075 0 0 1-1.25.107c-.14.004-.284.012-.424.017a23.985 23.985 0 0 1-2.389-.021 12.143 12.143 0 0 1-.547-.037c-.193-.017-.386-.033-.576-.054l-.111-.012a9.72 9.72 0 0 1-.506-.062c-.045-.004-.086-.012-.127-.017l-.497-.075c-.181-.029-.358-.062-.53-.091a13.652 13.652 0 0 1-.641-.132c-.132-.033-.259-.066-.391-.095l-.337-.087-.037-.012c-.119-.033-.238-.07-.362-.104-.033-.012-.066-.021-.09-.029a5.98 5.98 0 0 1-.251-.087c-.111-.041-.226-.079-.333-.12a9.892 9.892 0 0 1-.617-.252c-.099-.046-.193-.087-.28-.137-.004 0-.004 0-.008-.004a7.375 7.375 0 0 1-.255-.137 3.731 3.731 0 0 1-.382-.232"
        style="stroke:var(--color1, #004835)" />
      <path fill="none" stroke="#004835" stroke-linecap="round" stroke-linejoin="round" stroke-miterlimit="10"
        stroke-width="2"
        d="M5.296 11.032a4.243 4.243 0 0 1-.14-.099 1.706 1.706 0 0 1-.169-.128 2.116 2.116 0 0 1-.3-.269"
        style="stroke:var(--color1, #004835)" />
      <path fill="none" stroke="#004835" stroke-linecap="round" stroke-linejoin="round" stroke-miterlimit="2.613"
        stroke-width="2"
        d="M30.648 20.979c.169-.087.325-.178.465-.269.559.377.884.803.884 1.267 0 1.412-3.034 2.554-6.78 2.554-.822 0-1.608-.058-2.335-.157"
        style="stroke:var(--color1, #004835)" />
      <path fill="none" stroke="#004835" stroke-linecap="round" stroke-linejoin="round" stroke-miterlimit="2.613"
        stroke-width="2"
        d="M30.359 21.116c.095-.046.185-.083.271-.128M30.059 21.236c.099-.041.197-.075.292-.12M29.047 21.559c.123-.033.243-.066.358-.099M27.473 21.861l.078-.012M26.91 21.927l.325-.037M26.148 21.985c.086-.004.173-.008.255-.017M25.57 22.002c.086 0 .177-.004.259-.004"
        style="stroke:var(--color1, #004835)" />
      <path fill="none" stroke="#004835" stroke-linecap="round" stroke-linejoin="round" stroke-miterlimit="2.613"
        stroke-width="2"
        d="M31.116 18.185c.559.377.884.803.884 1.262s-.321.894-.884 1.259a3.864 3.864 0 0 1-.486.277 3.104 3.104 0 0 1-.271.128h-.008a2.455 2.455 0 0 1-.292.12 7.676 7.676 0 0 1-.654.224 12.496 12.496 0 0 1-1.859.389l-.078.012a4.154 4.154 0 0 1-.234.029c-.107.017-.218.025-.325.037-.165.017-.333.029-.506.041-.082.008-.169.012-.255.017-.107.004-.214.012-.321.017-.086 0-.173.004-.259.004-.115.004-.234.004-.349.004-1.184 0-2.302-.112-3.273-.319"
        style="stroke:var(--color1, #004835)" />
      <path fill="none" stroke="#004835" stroke-linecap="round" stroke-linejoin="round" stroke-miterlimit="2.613"
        stroke-width="2"
        d="M30.359 18.591c.095-.046.185-.083.271-.128M30.059 18.715c.099-.037.197-.079.292-.12M29.047 19.038c.123-.033.243-.066.358-.099M27.473 19.34l.078-.012M26.91 19.402l.325-.037M25.688 19.476c.156-.004.308-.008.46-.017.086-.004.173-.008.255-.016"
        style="stroke:var(--color1, #004835)" />
      <path fill="none" stroke="#004835" stroke-linecap="round" stroke-linejoin="round" stroke-miterlimit="2.613"
        stroke-width="2"
        d="M31.117 15.656c.559.377.884.807.884 1.267s-.321.89-.884 1.258a3.344 3.344 0 0 1-.485.277c-.086.046-.173.083-.271.128h-.008a2.455 2.455 0 0 1-.292.12 7.676 7.676 0 0 1-.654.224 12.496 12.496 0 0 1-1.859.389l-.078.012a4.154 4.154 0 0 1-.234.029c-.107.017-.218.025-.325.037-.165.017-.333.029-.506.041-.082.008-.169.012-.255.017-.152.008-.304.017-.46.017a17.963 17.963 0 0 1-2.619-.124"
        style="stroke:var(--color1, #004835)" />
      <path fill="none" stroke="#004835" stroke-linecap="round" stroke-linejoin="round" stroke-miterlimit="2.613"
        stroke-width="2"
        d="M30.359 16.066c.095-.046.185-.087.271-.128M30.059 16.186c.099-.037.197-.079.292-.12M29.047 16.509c.123-.033.243-.066.358-.099M27.473 16.811l.078-.012M26.91 16.877l.325-.037M25.688 16.947c.156-.004.308-.008.46-.016.082-.004.173-.008.251-.016"
        style="stroke:var(--color1, #004835)" />
      <path fill="none" stroke="#004835" stroke-linecap="round" stroke-linejoin="round" stroke-miterlimit="2.613"
        stroke-width="2"
        d="M31.134 13.147c.555.373.863.795.863 1.246 0 .46-.321.89-.884 1.258a3.344 3.344 0 0 1-.485.277 3.104 3.104 0 0 1-.271.128h-.008a3.376 3.376 0 0 1-.292.12 7.676 7.676 0 0 1-.654.224 12.496 12.496 0 0 1-1.859.389l-.078.012a4.154 4.154 0 0 1-.234.029c-.107.017-.218.025-.325.037a9.393 9.393 0 0 1-.51.041c-.086.008-.169.012-.251.017-.152.008-.304.017-.46.017a17.376 17.376 0 0 1-2.586-.12"
        style="stroke:var(--color1, #004835)" />
      <path fill="none" stroke="#004835" stroke-linecap="round" stroke-linejoin="round" stroke-miterlimit="2.613"
        stroke-width="2"
        d="M30.836 13.329c.062-.033.115-.062.173-.099M29.775 13.793c.103-.037.206-.07.304-.112.095-.033.181-.07.267-.108M27.264 14.339a3.05 3.05 0 0 0 .284-.037M25.693 14.451c.156-.004.308-.008.465-.017"
        style="stroke:var(--color1, #004835)" />
      <path fill="none" stroke="#004835" stroke-linecap="round" stroke-linejoin="round" stroke-miterlimit="2.613"
        stroke-width="2"
        d="M23.171 9.463c.645-.079 1.332-.12 2.043-.12 3.741 0 6.78 1.147 6.78 2.558 0 .451-.313.882-.863 1.246a1.059 1.059 0 0 1-.123.079c-.053.033-.111.07-.173.099a4.843 4.843 0 0 1-.756.352 3.407 3.407 0 0 1-.304.112c-.641.224-1.398.397-2.228.509-.09.017-.189.029-.284.037-.358.046-.724.079-1.106.095-.152.008-.308.012-.465.017s-.313.008-.473.008c-1.007 0-1.961-.083-2.82-.232M.884 16.906c-.555.381-.876.803-.876 1.263 0 1.072 1.747 1.991 4.227 2.372"
        style="stroke:var(--color1, #004835)" />
      <path fill="none" stroke="#004835" stroke-linecap="round" stroke-linejoin="round" stroke-miterlimit="2.613"
        stroke-width="2"
        d="M1.068 17.022c-.062-.037-.123-.07-.181-.112M2.18 17.522c-.082-.029-.156-.058-.234-.086M2.511 17.63a3.557 3.557 0 0 1-.214-.07"
        style="stroke:var(--color1, #004835)" />
      <path fill="none" stroke="#004835" stroke-linecap="round" stroke-linejoin="round" stroke-miterlimit="2.613"
        stroke-width="2"
        d="M.888 14.385c-.559.373-.884.803-.884 1.263 0 .455.321.89.876 1.258h.004a5.593 5.593 0 0 0 1.057.526c.078.029.152.058.234.087.037.017.078.029.119.041.07.025.14.05.214.07.798.248 1.752.422 2.792.513h.004M2.364 15.06l-.148-.05a7.443 7.443 0 0 1-.358-.132 5.518 5.518 0 0 1-.6-.273M3.004 15.245l-.321-.086"
        style="stroke:var(--color1, #004835)" />
      <path fill="none" stroke="#004835" stroke-linecap="round" stroke-linejoin="round" stroke-miterlimit="2.613"
        stroke-width="2"
        d="M.888 11.86c-.559.373-.884.803-.884 1.258 0 .46.321.894.884 1.263.115.079.238.149.374.219.181.099.382.191.6.273a4.2 4.2 0 0 0 .358.132l.148.05c.103.037.214.07.321.099.103.029.214.058.321.087.419.108.868.199 1.34.265h.004M3.2 12.766a5.681 5.681 0 0 1-.374-.095 3.514 3.514 0 0 1-.382-.108 6.742 6.742 0 0 1-.937-.36M4.095 12.948c-.271-.046-.53-.095-.777-.153"
        style="stroke:var(--color1, #004835)" />
      <path fill="none" stroke="#004835" stroke-linecap="round" stroke-linejoin="round" stroke-miterlimit="2.613"
        stroke-width="2"
        d="M1.024 9.45c-.058-.033-.107-.066-.16-.099-.547.373-.859.791-.859 1.246s.321.89.884 1.263c.181.116.391.232.617.339a7.822 7.822 0 0 0 1.319.468c.123.037.247.066.374.095.037.008.078.021.119.029.247.054.506.104.773.149h.004M2.007 9.914a4.083 4.083 0 0 1-.354-.145 2.755 2.755 0 0 1-.329-.153 1.843 1.843 0 0 1-.152-.083.4.4 0 0 1-.086-.05M4.68 10.531a19.868 19.868 0 0 1-.497-.07 6.025 6.025 0 0 1-.481-.083 10.098 10.098 0 0 1-.9-.211 6.432 6.432 0 0 1-.794-.253M5.337 11.061c-.016-.012-.033-.021-.045-.029-.049-.037-.095-.066-.14-.099-.053-.041-.115-.083-.169-.128a3.185 3.185 0 0 1-.3-.269"
        style="stroke:var(--color1, #004835)" />
      <path fill="none" stroke="#004835" stroke-linecap="round" stroke-linejoin="round" stroke-miterlimit="2.613"
        stroke-width="2"
        d="M10.254 5.952a.13.13 0 0 0-.062-.041c-.452-.182-3.084-.373-3.408-.373-3.741 0-6.776 1.147-6.776 2.558 0 .493.374.956 1.02 1.35.025.012.045.025.066.037l.086.05c.049.029.099.054.152.083.103.05.214.104.329.153.111.05.23.095.354.145h.004c.243.091.514.178.794.252a11.939 11.939 0 0 0 1.381.294c.164.029.329.05.497.07h.004"
        style="stroke:var(--color1, #004835)" />
    </symbol>
    <symbol id="icon-Fam-Budget" viewBox="0 0 32 32">
      <path fill="#004835"
        d="M5.244 15.605H3.512a.274.274 0 0 1-.273-.273V13.6c0-.15.124-.273.273-.273h1.732c.15 0 .273.123.273.273v1.732c0 .15-.121.273-.273.273z"
        style="fill:var(--color1, #004835)" />
      <path fill="#004835"
        d="M5.243 15.999H3.511a.67.67 0 0 1-.668-.668v-1.732c0-.368.3-.668.668-.668h1.732c.368 0 .668.3.668.668v1.732a.667.667 0 0 1-.668.668zm-1.608-.788h1.49v-1.49h-1.49v1.49zM9.842 15.605H8.113a.274.274 0 0 1-.273-.273V13.6c0-.15.124-.273.273-.273h1.732c.15 0 .273.123.273.273v1.732a.277.277 0 0 1-.276.273z"
        style="fill:var(--color1, #004835)" />
      <path fill="#004835"
        d="M9.842 15.999H8.113a.67.67 0 0 1-.668-.668v-1.732c0-.368.3-.668.668-.668h1.732c.368 0 .668.3.668.668v1.732a.672.672 0 0 1-.67.668zm-1.608-.788h1.49v-1.49h-1.49v1.49zM14.443 15.605h-1.732a.274.274 0 0 1-.273-.273V13.6c0-.15.123-.273.273-.273h1.732c.15 0 .273.123.273.273v1.732c0 .15-.121.273-.273.273z"
        style="fill:var(--color1, #004835)" />
      <path fill="#004835"
        d="M14.442 15.999H12.71a.67.67 0 0 1-.668-.668v-1.732c0-.368.3-.668.668-.668h1.732c.368 0 .668.3.668.668v1.732a.667.667 0 0 1-.668.668zm-1.608-.788h1.49v-1.49h-1.49v1.49zM19.042 15.605h-1.729a.274.274 0 0 1-.273-.273V13.6c0-.15.123-.273.273-.273h1.732c.15 0 .273.123.273.273v1.732a.277.277 0 0 1-.276.273z"
        style="fill:var(--color1, #004835)" />
      <path fill="#004835"
        d="M19.041 15.999h-1.729a.67.67 0 0 1-.668-.668v-1.732c0-.368.3-.668.668-.668h1.732c.368 0 .668.3.668.668v1.732a.672.672 0 0 1-.67.668zm-1.608-.788h1.49v-1.49h-1.49v1.49zM23.64 15.605h-1.732a.274.274 0 0 1-.273-.273V13.6c0-.15.123-.273.273-.273h1.732c.15 0 .273.123.273.273v1.732c0 .15-.121.273-.273.273z"
        style="fill:var(--color1, #004835)" />
      <path fill="#004835"
        d="M23.642 15.999H21.91a.67.67 0 0 1-.668-.668v-1.732c0-.368.3-.668.668-.668h1.732c.368 0 .668.3.668.668v1.732a.671.671 0 0 1-.668.668zm-1.611-.788h1.49v-1.49h-1.49v1.49zM28.241 15.999h-1.732a.67.67 0 0 1-.668-.668v-1.732c0-.368.3-.668.668-.668h1.732c.368 0 .668.3.668.668v1.732a.671.671 0 0 1-.668.668zm-1.611-.788h1.49v-1.49h-1.49v1.49zM5.244 19.721H3.512a.274.274 0 0 1-.273-.273v-1.732c0-.15.124-.273.273-.273h1.732c.15 0 .273.123.273.273v1.732a.271.271 0 0 1-.273.273z"
        style="fill:var(--color1, #004835)" />
      <path fill="#004835"
        d="M5.243 20.115H3.511a.67.67 0 0 1-.668-.668v-1.732c0-.368.3-.668.668-.668h1.732c.368 0 .668.3.668.668v1.732a.667.667 0 0 1-.668.668zm-1.608-.789h1.49v-1.49h-1.49v1.49zM9.842 19.721H8.113a.275.275 0 0 1-.273-.273v-1.732c0-.15.124-.273.273-.273h1.732c.15 0 .273.123.273.273v1.732a.275.275 0 0 1-.276.273z"
        style="fill:var(--color1, #004835)" />
      <path fill="#004835"
        d="M9.842 20.115H8.113a.67.67 0 0 1-.668-.668v-1.732c0-.368.3-.668.668-.668h1.732c.368 0 .668.3.668.668v1.732a.672.672 0 0 1-.67.668zm-1.608-.788h1.49v-1.49h-1.49v1.49zM14.443 19.721h-1.732a.274.274 0 0 1-.273-.273v-1.732c0-.15.123-.273.273-.273h1.732c.15 0 .273.123.273.273v1.732a.271.271 0 0 1-.273.273z"
        style="fill:var(--color1, #004835)" />
      <path fill="#004835"
        d="M14.442 20.115H12.71a.67.67 0 0 1-.668-.668v-1.732c0-.368.3-.668.668-.668h1.732c.368 0 .668.3.668.668v1.732a.667.667 0 0 1-.668.668zm-1.608-.789h1.49v-1.49h-1.49v1.49zM19.042 19.721h-1.729a.274.274 0 0 1-.273-.273v-1.732c0-.15.123-.273.273-.273h1.732c.15 0 .273.123.273.273v1.732a.275.275 0 0 1-.276.273z"
        style="fill:var(--color1, #004835)" />
      <path fill="#004835"
        d="M19.041 20.115h-1.729a.67.67 0 0 1-.668-.668v-1.732c0-.368.3-.668.668-.668h1.732c.368 0 .668.3.668.668v1.732a.672.672 0 0 1-.67.668zm-1.608-.789h1.49v-1.49h-1.49v1.49zM23.64 19.721h-1.732a.274.274 0 0 1-.273-.273v-1.732c0-.15.123-.273.273-.273h1.732c.15 0 .273.123.273.273v1.732a.271.271 0 0 1-.273.273z"
        style="fill:var(--color1, #004835)" />
      <path fill="#004835"
        d="M23.642 20.115H21.91a.67.67 0 0 1-.668-.668v-1.732c0-.368.3-.668.668-.668h1.732c.368 0 .668.3.668.668v1.732a.671.671 0 0 1-.668.668zm-1.611-.789h1.49v-1.49h-1.49v1.49zM28.241 20.115h-1.732a.67.67 0 0 1-.668-.668v-1.732c0-.368.3-.668.668-.668h1.732c.368 0 .668.3.668.668v1.732a.671.671 0 0 1-.668.668zm-1.611-.788h1.49v-1.49h-1.49v1.49zM5.244 23.839H3.512a.274.274 0 0 1-.273-.273v-1.732c0-.15.124-.273.273-.273h1.732c.15 0 .273.124.273.273v1.732c0 .15-.121.273-.273.273z"
        style="fill:var(--color1, #004835)" />
      <path fill="#004835"
        d="M5.243 24.233H3.511a.67.67 0 0 1-.668-.668v-1.732c0-.368.3-.668.668-.668h1.732c.368 0 .668.3.668.668v1.732a.667.667 0 0 1-.668.668zm-1.608-.788h1.49v-1.49h-1.49v1.49zM9.842 23.839H8.113a.274.274 0 0 1-.273-.273v-1.732c0-.15.124-.273.273-.273h1.732c.15 0 .273.123.273.273v1.732a.277.277 0 0 1-.276.273z"
        style="fill:var(--color1, #004835)" />
      <path fill="#004835"
        d="M9.842 24.233H8.113a.67.67 0 0 1-.668-.668v-1.732c0-.368.3-.668.668-.668h1.732c.368 0 .668.3.668.668v1.732a.672.672 0 0 1-.67.668zm-1.608-.788h1.49v-1.49h-1.49v1.49zM14.443 23.839h-1.732a.274.274 0 0 1-.273-.273v-1.732c0-.15.123-.273.273-.273h1.732c.15 0 .273.124.273.273v1.732c0 .15-.121.273-.273.273z"
        style="fill:var(--color1, #004835)" />
      <path fill="#004835"
        d="M14.442 24.233H12.71a.67.67 0 0 1-.668-.668v-1.732c0-.368.3-.668.668-.668h1.732c.368 0 .668.3.668.668v1.732a.667.667 0 0 1-.668.668zm-1.608-.788h1.49v-1.49h-1.49v1.49zM19.042 23.839h-1.729a.274.274 0 0 1-.273-.273v-1.732c0-.15.123-.273.273-.273h1.732c.15 0 .273.124.273.273v1.732a.277.277 0 0 1-.276.273z"
        style="fill:var(--color1, #004835)" />
      <path fill="#004835"
        d="M19.041 24.233h-1.729a.67.67 0 0 1-.668-.668v-1.732c0-.368.3-.668.668-.668h1.732c.368 0 .668.3.668.668v1.732a.672.672 0 0 1-.67.668zm-1.608-.788h1.49v-1.49h-1.49v1.49zM23.64 23.839h-1.732a.274.274 0 0 1-.273-.273v-1.732c0-.15.123-.273.273-.273h1.732c.15 0 .273.124.273.273v1.732c0 .15-.121.273-.273.273z"
        style="fill:var(--color1, #004835)" />
      <path fill="#004835"
        d="M23.642 24.233H21.91a.67.67 0 0 1-.668-.668v-1.732c0-.368.3-.668.668-.668h1.732c.368 0 .668.3.668.668v1.732a.671.671 0 0 1-.668.668zm-1.611-.788h1.49v-1.49h-1.49v1.49zM25.667 27.65a.657.657 0 0 1-.657-.657v-4.741c0-.599.486-1.085 1.085-1.085h4.741a.657.657 0 1 1 0 1.314h-4.512v4.512a.657.657 0 0 1-.657.657zM6.582 3.077v3.95a1.877 1.877 0 0 0 3.753 0v-3.95H6.582zm1.877 4.205a.768.768 0 1 1 .002-1.536.768.768 0 0 1-.002 1.536zM21.813 3.077v3.95a1.878 1.878 0 0 0 3.753 0v-3.95h-3.753zm1.873 4.205a.768.768 0 1 1 .002-1.536.768.768 0 0 1-.002 1.536z"
        style="fill:var(--color1, #004835)" />
      <path fill="#004835"
        d="M31.493 10.522V6.963a1.22 1.22 0 0 0-1.217-1.217h-4.187v1.277c0 1.325-1.078 2.402-2.402 2.402s-2.402-1.078-2.402-2.402V5.746H10.859v1.277c0 1.325-1.078 2.402-2.402 2.402S6.055 8.347 6.055 7.023V5.746H1.868A1.22 1.22 0 0 0 .651 6.963v3.559h30.841z"
        style="fill:var(--color1, #004835)" />
      <path fill="#004835"
        d="M29.861 5.093H26.14c-.016 0-.032.003-.047.005v1.304c.016 0 .032.005.047.005h3.721c.452 0 .823.368.823.823v14.707a.832.832 0 0 1-.239.581l-4.236 4.236a.815.815 0 0 1-.581.242H2.138a.824.824 0 0 1-.823-.823V7.23c0-.452.368-.823.823-.823h3.645c.1 0 .192-.024.279-.063V5.156a.664.664 0 0 0-.279-.063H2.138A2.14 2.14 0 0 0 .001 7.23v18.943a2.14 2.14 0 0 0 2.137 2.137h23.49c.57 0 1.106-.223 1.511-.625l4.236-4.236A2.11 2.11 0 0 0 32 21.938V7.231a2.143 2.143 0 0 0-2.139-2.137z"
        style="fill:var(--color1, #004835)" />
    </symbol>
    <symbol id="icon-Own-Budget" viewBox="0 0 32 32">
      <path fill="#004835"
        d="M4.309 1.654v28.693c0 .913.771 1.654 1.722 1.654h19.942c.951 0 1.721-.74 1.721-1.654V1.654C27.694.741 26.923 0 25.973 0H6.034C5.081 0 4.31.74 4.31 1.654zM9.624 29.17H7.841a.523.523 0 0 1-.532-.511v-1.713c0-.281.239-.511.532-.511h1.783c.293 0 .532.23.532.511v1.713a.521.521 0 0 1-.532.511zm0-4.399H7.841a.523.523 0 0 1-.532-.511v-1.713c0-.281.239-.511.532-.511h1.783c.293 0 .532.23.532.511v1.713a.52.52 0 0 1-.532.511zm0-4.396H7.841a.523.523 0 0 1-.532-.511v-1.713c0-.281.239-.511.532-.511h1.783c.293 0 .532.23.532.511v1.713a.52.52 0 0 1-.532.511zm0-4.396H7.841a.523.523 0 0 1-.532-.511v-1.713c0-.281.239-.511.532-.511h1.783c.293 0 .532.23.532.511v1.713a.521.521 0 0 1-.532.511zm4.423 13.191h-1.783a.523.523 0 0 1-.532-.511v-1.713c0-.281.239-.511.532-.511h1.783c.293 0 .532.23.532.511v1.713a.521.521 0 0 1-.532.511zm0-4.399h-1.783a.523.523 0 0 1-.532-.511v-1.713c0-.281.239-.511.532-.511h1.783c.293 0 .532.23.532.511v1.713a.52.52 0 0 1-.532.511zm0-4.396h-1.783a.523.523 0 0 1-.532-.511v-1.713c0-.281.239-.511.532-.511h1.783c.293 0 .532.23.532.511v1.713a.52.52 0 0 1-.532.511zm0-4.396h-1.783a.523.523 0 0 1-.532-.511v-1.713c0-.281.239-.511.532-.511h1.783c.293 0 .532.23.532.511v1.713a.521.521 0 0 1-.532.511zM18.47 29.17h-1.783a.523.523 0 0 1-.532-.511v-1.713c0-.281.239-.511.532-.511h1.783c.293 0 .532.23.532.511v1.713a.521.521 0 0 1-.532.511zm0-4.399h-1.783a.523.523 0 0 1-.532-.511v-1.713c0-.281.239-.511.532-.511h1.783c.293 0 .532.23.532.511v1.713a.52.52 0 0 1-.532.511zm0-4.396h-1.783a.523.523 0 0 1-.532-.511v-1.713c0-.281.239-.511.532-.511h1.783c.293 0 .532.23.532.511v1.713a.52.52 0 0 1-.532.511zm0-4.396h-1.783a.523.523 0 0 1-.532-.511v-1.713c0-.281.239-.511.532-.511h1.783c.293 0 .532.23.532.511v1.713a.521.521 0 0 1-.532.511zm5.694 13.191h-1.783a.523.523 0 0 1-.532-.511V22.55c0-.281.239-.511.532-.511h1.783c.293 0 .532.23.532.511v6.109a.523.523 0 0 1-.532.511zm0-8.795h-1.783a.523.523 0 0 1-.532-.511v-1.713c0-.281.239-.511.532-.511h1.783c.293 0 .532.23.532.511v1.713a.521.521 0 0 1-.532.511zm0-4.396h-1.783a.523.523 0 0 1-.532-.511v-1.713c0-.281.239-.511.532-.511h1.783c.293 0 .532.23.532.511v1.713a.523.523 0 0 1-.532.511zm.172-7.236H7.668a.353.353 0 0 1-.36-.346V3.175c0-.191.161-.346.36-.346h16.665c.199 0 .36.155.36.346v5.222a.35.35 0 0 1-.357.346z"
        style="fill:var(--color1, #004835)" />
      <path fill="#004835" stroke="#000" stroke-width="2"
        d="M13.717 6.656h.626c0 .027.001.051.004.075.026.213.176.296.334.32a.826.826 0 0 0 .11.008h.653a.853.853 0 0 0 .118-.008c.184-.028.288-.129.308-.319a.822.822 0 0 0 .004-.072V4.808a.558.558 0 0 0-.004-.072c-.018-.171-.105-.291-.308-.321a.685.685 0 0 0-.105-.007h-.679a.732.732 0 0 0-.097.006c-.234.033-.32.189-.336.339a.489.489 0 0 0-.003.054l-.626 1.85zM17.127 6.656h.626c0 .027.001.051.004.075.026.213.176.296.334.32a.826.826 0 0 0 .11.008h.653a.853.853 0 0 0 .118-.008c.184-.028.288-.129.308-.319a.822.822 0 0 0 .004-.072V4.808a.558.558 0 0 0-.004-.072c-.018-.171-.105-.291-.308-.321a.685.685 0 0 0-.105-.007h-.68a.732.732 0 0 0-.097.006c-.234.033-.32.189-.336.339a.489.489 0 0 0-.003.054l-.626 1.85zM20.537 6.656h.626c0 .027.001.051.004.075.026.213.176.296.334.32a.826.826 0 0 0 .11.008h.653a.853.853 0 0 0 .118-.008c.184-.028.288-.129.308-.319a.822.822 0 0 0 .004-.072V4.808a.832.832 0 0 0-.003-.072c-.018-.171-.105-.291-.308-.321a.685.685 0 0 0-.105-.007h-.68a.732.732 0 0 0-.097.006c-.234.033-.32.189-.336.339a.489.489 0 0 0-.003.054l-.626 1.85z"
        style="fill:var(--color1, #004835);stroke:var(--color7, #000)" />
    </symbol>
    <symbol id="icon-General" viewBox="0 0 32 32">
      <path fill="#004835"
        d="M24.403 30.089a.64.64 0 0 1-.654-.626V9.549a.255.255 0 0 0-.081-.185L19.759 5.62a.277.277 0 0 0-.193-.078H5.107c-.361 0-.654-.28-.654-.626s.293-.626.654-.626h14.459c.424 0 .821.158 1.119.443l3.909 3.744c.298.286.463.666.463 1.072v19.912a.642.642 0 0 1-.654.629z"
        style="fill:var(--color1, #004835)" />
      <path fill="#004835"
        d="M26.644 27.943a.64.64 0 0 1-.654-.626V7.405a.25.25 0 0 0-.081-.185l-3.912-3.746a.277.277 0 0 0-.194-.078H7.344c-.361 0-.654-.28-.654-.626s.293-.626.654-.626h14.459c.424 0 .818.158 1.119.443l3.909 3.744c.295.28.463.671.463 1.072v19.912c.003.348-.29.628-.651.628z"
        style="fill:var(--color1, #004835)" />
      <path fill="#004835"
        d="M28.883 25.797a.64.64 0 0 1-.654-.626V5.259a.255.255 0 0 0-.081-.185L24.239 1.33a.286.286 0 0 0-.194-.078H9.586c-.361 0-.654-.28-.654-.626S9.225 0 9.586 0h14.459c.416 0 .824.163 1.119.443l3.909 3.744c.298.285.463.666.463 1.072v19.912a.64.64 0 0 1-.654.626z"
        style="fill:var(--color1, #004835)" />
      <path fill="#004835"
        d="M22.435 11.683h-3.802c-.716 0-1.299-.559-1.299-1.245V6.797c0-.195.165-.356.371-.356s.371.158.371.356v3.641c0 .293.251.533.557.533h3.802c.204 0 .371.158.371.356s-.165.356-.371.356z"
        style="fill:var(--color1, #004835)" />
      <path fill="#004835"
        d="M19.032 11.462c-.821 0-1.488-.639-1.488-1.425V6.564H3.388c-.512 0-.928.398-.928.889v23.658c0 .491.416.889.928.889h18.368c.512 0 .928-.398.928-.889V11.465l-3.653-.002zm-14.16-1.63h10.947c.217 0 .392.168.392.376s-.175.376-.392.376H4.872c-.217 0-.392-.168-.392-.376s.175-.376.392-.376zm15.402 17.71h-15.4c-.217 0-.392-.168-.392-.376s.175-.376.392-.376h15.4c.217 0 .392.168.392.376s-.178.376-.392.376zm0-2.825h-15.4c-.217 0-.392-.168-.392-.376s.175-.376.392-.376h15.4c.217 0 .392.168.392.376a.388.388 0 0 1-.392.376zm0-2.827h-15.4c-.217 0-.392-.168-.392-.376s.175-.376.392-.376h15.4c.217 0 .392.168.392.376s-.178.376-.392.376zm0-2.827h-15.4c-.217 0-.392-.168-.392-.376s.175-.376.392-.376h15.4c.217 0 .392.168.392.376s-.178.376-.392.376zm0-2.825h-15.4c-.217 0-.392-.168-.392-.376s.175-.376.392-.376h15.4c.217 0 .392.168.392.376a.388.388 0 0 1-.392.376zm0-2.827h-15.4c-.217 0-.392-.168-.392-.376s.175-.376.392-.376h15.4c.217 0 .392.168.392.376s-.178.376-.392.376z"
        style="fill:var(--color1, #004835)" />
    </symbol>
    <symbol id="icon-Email" viewBox="0 0 32 32">
      <path fill="none" stroke="#f5f5f5" stroke-linecap="round" stroke-linejoin="round" stroke-miterlimit="10"
        stroke-width="1.714"
        d="M21.714 25.714H10.285C6.856 25.714 4.571 24 4.571 20v-8c0-4 2.286-5.714 5.714-5.714h11.429c3.429 0 5.714 1.714 5.714 5.714v8c0 4-2.286 5.714-5.714 5.714z"
        style="stroke:var(--color8, #f5f5f5)" />
      <path fill="none" stroke="#f5f5f5" stroke-linecap="round" stroke-linejoin="round" stroke-miterlimit="10"
        stroke-width="1.714" d="m21.714 12.571-3.577 2.857c-1.177.937-3.109.937-4.286 0l-3.566-2.857"
        style="stroke:var(--color8, #f5f5f5)" />
    </symbol>

    <symbol id="icon-mdi_linkedin" viewBox="0 0 32 32">
      <path
        d="M27.407 1.333a3.26 3.26 0 0 1 3.26 3.26v22.815a3.26 3.26 0 0 1-3.26 3.26H4.592a3.26 3.26 0 0 1-3.26-3.26V4.593a3.26 3.26 0 0 1 3.26-3.26h22.815zm-.814 25.26v-8.637a5.316 5.316 0 0 0-5.313-5.313c-1.385 0-2.999.847-3.781 2.118v-1.809h-4.547v13.64h4.547v-8.034a2.273 2.273 0 0 1 2.265-2.281 2.28 2.28 0 0 1 2.281 2.281v8.034h4.547zM7.656 10.394a2.737 2.737 0 0 0 2.738-2.738 2.747 2.747 0 0 0-2.738-2.754 2.751 2.751 0 0 0-2.754 2.754 2.747 2.747 0 0 0 2.754 2.738zm2.265 16.199v-13.64H5.407v13.64h4.514z"
        style="fill:var(--color9, #4a4c4c)" />
    </symbol>
    <symbol id="icon-linkedin" viewBox="0 0 32 32">
      <path
        d="M27.407 1.333c0.864 0 1.693 0.343 2.305 0.955s0.955 1.44 0.955 2.305v22.815c0 0.864-0.343 1.693-0.955 2.305s-1.44 0.955-2.305 0.955h-22.815c-0.864 0-1.693-0.343-2.305-0.955s-0.955-1.44-0.955-2.305v-22.815c0-0.864 0.343-1.693 0.955-2.305s1.44-0.955 2.305-0.955h22.815zM26.593 26.593v-8.637c0-1.409-0.56-2.76-1.556-3.757s-2.348-1.556-3.757-1.556c-1.385 0-2.999 0.847-3.781 2.118v-1.809h-4.547v13.64h4.547v-8.034c0-1.255 1.010-2.281 2.265-2.281 0.605 0 1.185 0.24 1.613 0.668s0.668 1.008 0.668 1.613v8.034h4.547zM7.656 10.394c0.726 0 1.422-0.288 1.936-0.802s0.802-1.21 0.802-1.936c0-1.516-1.222-2.754-2.738-2.754-0.73 0-1.431 0.29-1.947 0.807s-0.807 1.217-0.807 1.947c0 1.516 1.239 2.738 2.754 2.738zM9.921 26.593v-13.64h-4.514v13.64h4.514z">
      </path>
    </symbol>
    <symbol id="icon-closecircle" viewBox="0 0 32 32">
      <path fill="none" stroke="#bdbdbd" stroke-width="1.5" stroke-miterlimit="4" stroke-linecap="round"
        stroke-linejoin="round" style="stroke: var(--color1, #bdbdbd)"
        d="M12.56 20.107l7.547-7.547M20.107 20.107l-7.547-7.547M16.333 29.667c7.333 0 13.333-6 13.333-13.333s-6-13.333-13.333-13.333c-7.333 0-13.333 6-13.333 13.333s6 13.333 13.333 13.333z">
      </path>
    </symbol>

    <symbol id="icon-game-finance" viewBox="0 0 32 32">
      <path fill="#004835" style="fill: var(--color1, #004835)"
        d="M18.086 4.808c7.331 0 13.274 5.948 13.274 13.279s-5.943 13.274-13.274 13.274c-7.331 0-13.279-5.943-13.279-13.274h13.279v-13.279z">
      </path>
      <path fill="#004835" style="fill: var(--color1, #004835)"
        d="M0.64 14.837c0-7.831 6.366-14.197 14.197-14.197h0.918v15.115h-15.115v-0.918zM13.914 2.512c-6.081 0.449-10.953 5.321-11.401 11.401h11.401v-11.401z">
      </path>
    </symbol>
    <symbol id="icon-game-money" viewBox="0 0 32 32">
      <path fill="#004835" style="fill: var(--color1, #004835)"
        d="M15.252 20.279c0-0.132 0.010-0.416 0.119-0.659 0.098-0.242 0.289-0.453 0.624-0.453s0.454 0.111 0.536 0.195c0.134 0.184 0.206 0.49 0.206 0.917v0.58h1.14v-0.58c0-0.696-0.16-1.233-0.459-1.639-0.18-0.206-0.428-0.427-0.851-0.564v-4.189h3.275c5.792 1.744 9.831 7.245 9.831 13.389v2.366h-14.241v-3.193h1.135v-0.696c0.686-0.195 1.31-0.906 1.31-2.129 0-0.701-0.263-1.175-0.567-1.496-0.299-0.316-0.681-0.49-0.882-0.585-0.052-0.026-0.098-0.053-0.144-0.063-0.062-0.047-0.134-0.084-0.217-0.121-0.242-0.111-0.444-0.248-0.588-0.406s-0.227-0.364-0.227-0.674z">
      </path>
      <path fill="#004835" style="fill: var(--color1, #004835)"
        d="M15.433 29.642h-13.106v-2.366c0-6.144 4.039-11.645 9.831-13.389h4.41v3.514h-1.135v0.69c-0.371 0.132-0.66 0.342-0.877 0.648-0.273 0.4-0.433 0.917-0.433 1.539 0 0.601 0.181 1.091 0.552 1.496 0.16 0.158 0.315 0.295 0.469 0.379l0.408 0.232c0.036 0.011 0.062 0.026 0.093 0.037 0.026 0.011 0.052 0.037 0.062 0.047 0.062 0.037 0.144 0.090 0.253 0.126 0.227 0.105 0.418 0.216 0.562 0.364 0.134 0.148 0.217 0.358 0.217 0.664 0 0.195-0.026 0.453-0.119 0.669-0.108 0.221-0.299 0.395-0.624 0.395-0.17 0-0.289-0.026-0.361-0.074-0.083-0.047-0.129-0.1-0.165-0.137-0.144-0.169-0.217-0.474-0.217-0.906v-0.585h-1.13v0.585c0 0.701 0.16 1.249 0.459 1.628 0.155 0.211 0.428 0.453 0.851 0.564v3.878z">
      </path>
      <path fill="#004835" style="fill: var(--color1, #004835)"
        d="M19.255 10.405h-6.509v1.76h6.509v-1.76zM11.812 2.717l0.583 5.965h7.211l0.583-5.959c-1.207 0.917-2.672 1.417-4.188 1.417s-2.981-0.501-4.188-1.423zM12.157 13.888c-5.792 1.744-9.831 7.245-9.831 13.389v2.366h27.347v-2.366c0-6.144-4.039-11.645-9.831-13.389h-7.685zM0.64 27.276c0-6.681 4.255-12.683 10.424-14.843v-0.074l-0.99-10.127c-0.062-0.601 0.242-1.164 0.768-1.433 0.526-0.274 1.15-0.19 1.589 0.216 0.98 0.906 2.249 1.407 3.569 1.407s2.589-0.501 3.569-1.407c0.438-0.406 1.063-0.49 1.589-0.216 0.526 0.269 0.83 0.832 0.768 1.433l-0.99 10.127v0.074c6.174 2.16 10.424 8.162 10.424 14.843v4.084h-30.72v-4.084z">
      </path>
    </symbol>
    <symbol id="icon-game-time" viewBox="0 0 32 32">
      <path fill="#004835" style="fill: var(--color1, #004835)"
        d="M20.184 19.022c0.402 0 0.733-0.326 0.733-0.728 0-0.407-0.331-0.733-0.733-0.733h-0.11c-0.115-0.136-0.286-0.216-0.472-0.216h-2.871v-7.52c0-0.407-0.326-0.733-0.733-0.733-0.402 0-0.728 0.326-0.728 0.733v9.197h4.914zM26.297 16.632c-0.316 5.196-4.472 9.352-9.667 9.669v-0.602c0-0.346-0.281-0.633-0.632-0.633-0.346 0-0.627 0.286-0.627 0.633v0.602c-5.2-0.316-9.356-4.473-9.667-9.669h0.597c0.351 0 0.632-0.281 0.632-0.633 0-0.346-0.281-0.633-0.632-0.633h-0.597c0.311-5.196 4.467-9.352 9.667-9.669v0.602c0 0.351 0.281 0.633 0.627 0.633 0.351 0 0.632-0.281 0.632-0.633v-0.602c5.2 0.316 9.356 4.473 9.667 9.669h-0.602c-0.346 0-0.627 0.286-0.627 0.633 0 0.351 0.281 0.633 0.627 0.633h0.602z">
      </path>
      <path fill="#004835" style="fill: var(--color1, #004835)"
        d="M20.184 17.561c0.402 0 0.733 0.326 0.733 0.733 0 0.402-0.331 0.728-0.733 0.728h-4.914v-9.197c0-0.407 0.326-0.733 0.728-0.733 0.407 0 0.733 0.326 0.733 0.733v7.52h-0.1v-6.657c0-0.351-0.281-0.633-0.632-0.633-0.346 0-0.627 0.281-0.627 0.633v7.912h4.231c0.341 0 0.627-0.281 0.627-0.628 0-0.161-0.060-0.301-0.156-0.412h0.11z">
      </path>
      <path fill="#004835" style="fill: var(--color1, #004835)"
        d="M30.769 16c0 8.143-6.625 14.769-14.772 14.769-8.141 0-14.767-6.627-14.767-14.769s6.625-14.769 14.767-14.769c8.146 0 14.772 6.627 14.772 14.769zM29.303 16c0-7.339-5.968-13.308-13.306-13.308-7.333 0-13.301 5.969-13.301 13.308s5.968 13.308 13.301 13.308c7.338 0 13.306-5.969 13.306-13.308z">
      </path>
    </symbol>
    <symbol id="right-arrow" viewBox="0 0 32 32">
      <path fill="none" d="M13.5996 20.8L18.3996 16L13.5996 11.2" stroke="currentColor" stroke-width="2"
        stroke-linecap="round" stroke-linejoin="round" />
    </symbol>
    <symbol id="left-arrow" viewBox="0 0 19 14">
      <path fill="none" d="M7.07 1L1 7.07L7.07 13.14M18 7.07H1.17" stroke="currentColor" stroke-width="1.5"
        stroke-miterlimit="10" stroke-linecap="round" stroke-linejoin="round" />
    </symbol>
    <symbol id="button-up" viewBox="0 0 32 32">
      <path stroke="#004835" stroke-width="0.8" stroke-miterlimit="4" stroke-linecap="butt" stroke-linejoin="miter"
        d="M31.6 16c0 8.616-6.984 15.6-15.6 15.6s-15.6-6.984-15.6-15.6c0-8.616 6.984-15.6 15.6-15.6s15.6 6.984 15.6 15.6z">
      </path>
      <path stroke-width="1.2" stroke-miterlimit="10" stroke-linecap="round" stroke-linejoin="round"
        d="M12.352 18.4l3.477-3.477c0.411-0.411 1.083-0.411 1.493 0l3.477 3.477"></path>
    </symbol>
  </defs>
</svg>